<mxfile host="Electron" agent="Mozilla/5.0 (Windows NT 10.0; Win64; x64) AppleWebKit/537.36 (KHTML, like Gecko) draw.io/26.0.15 Chrome/132.0.6834.196 Electron/34.2.0 Safari/537.36" version="26.0.15">
  <diagram name="Page-1" id="o9Dabj_HN_6f1lb9_3TO">
    <mxGraphModel dx="926" dy="552" grid="1" gridSize="10" guides="1" tooltips="1" connect="1" arrows="1" fold="1" page="1" pageScale="1" pageWidth="850" pageHeight="1100" math="0" shadow="0">
      <root>
        <mxCell id="0" />
        <mxCell id="1" parent="0" />
        <mxCell id="dV1bL2ieKj4Z74G61Acg-1" value="User" style="shape=umlActor;verticalLabelPosition=bottom;verticalAlign=top;html=1;outlineConnect=0;" parent="1" vertex="1">
          <mxGeometry x="150" y="75" width="30" height="60" as="geometry" />
        </mxCell>
        <mxCell id="dV1bL2ieKj4Z74G61Acg-2" value="Artist" style="shape=umlActor;verticalLabelPosition=bottom;verticalAlign=top;html=1;outlineConnect=0;" parent="1" vertex="1">
          <mxGeometry x="230" y="75" width="30" height="60" as="geometry" />
        </mxCell>
        <mxCell id="dV1bL2ieKj4Z74G61Acg-3" value="Admin" style="shape=umlActor;verticalLabelPosition=bottom;verticalAlign=top;html=1;outlineConnect=0;" parent="1" vertex="1">
          <mxGeometry x="310" y="75" width="30" height="60" as="geometry" />
        </mxCell>
        <mxCell id="dV1bL2ieKj4Z74G61Acg-7" value="" style="rounded=1;whiteSpace=wrap;html=1;" parent="1" vertex="1">
          <mxGeometry x="400" y="90" width="120" height="30" as="geometry" />
        </mxCell>
        <mxCell id="dV1bL2ieKj4Z74G61Acg-8" value="Frontend(Client)" style="text;html=1;align=center;verticalAlign=middle;resizable=0;points=[];autosize=1;strokeColor=none;fillColor=none;" parent="1" vertex="1">
          <mxGeometry x="405" y="90" width="110" height="30" as="geometry" />
        </mxCell>
        <mxCell id="dV1bL2ieKj4Z74G61Acg-9" value="" style="rounded=1;whiteSpace=wrap;html=1;" parent="1" vertex="1">
          <mxGeometry x="535" y="90" width="120" height="30" as="geometry" />
        </mxCell>
        <mxCell id="dV1bL2ieKj4Z74G61Acg-10" value="Backend(Client)" style="text;html=1;align=center;verticalAlign=middle;resizable=0;points=[];autosize=1;strokeColor=none;fillColor=none;" parent="1" vertex="1">
          <mxGeometry x="540" y="90" width="110" height="30" as="geometry" />
        </mxCell>
        <mxCell id="dV1bL2ieKj4Z74G61Acg-11" value="" style="rounded=1;whiteSpace=wrap;html=1;" parent="1" vertex="1">
          <mxGeometry x="695" y="90" width="120" height="30" as="geometry" />
        </mxCell>
        <mxCell id="dV1bL2ieKj4Z74G61Acg-12" value="MongoDB Database" style="text;html=1;align=center;verticalAlign=middle;resizable=0;points=[];autosize=1;strokeColor=none;fillColor=none;" parent="1" vertex="1">
          <mxGeometry x="690" y="90" width="130" height="30" as="geometry" />
        </mxCell>
        <mxCell id="dV1bL2ieKj4Z74G61Acg-14" value="" style="rounded=0;whiteSpace=wrap;html=1;" parent="1" vertex="1">
          <mxGeometry x="455" y="160" width="10" height="1120" as="geometry" />
        </mxCell>
        <mxCell id="dV1bL2ieKj4Z74G61Acg-17" value="" style="rounded=0;whiteSpace=wrap;html=1;" parent="1" vertex="1">
          <mxGeometry x="590" y="190" width="10" height="300" as="geometry" />
        </mxCell>
        <mxCell id="dV1bL2ieKj4Z74G61Acg-26" value="" style="endArrow=classic;html=1;rounded=0;exitX=0;exitY=0.107;exitDx=0;exitDy=0;exitPerimeter=0;entryX=-0.053;entryY=0.1;entryDx=0;entryDy=0;entryPerimeter=0;" parent="1" edge="1" source="75vP7e7INXOybPQJv8t6-1">
          <mxGeometry width="50" height="50" relative="1" as="geometry">
            <mxPoint x="90" y="280" as="sourcePoint" />
            <mxPoint x="454" y="280" as="targetPoint" />
          </mxGeometry>
        </mxCell>
        <mxCell id="dV1bL2ieKj4Z74G61Acg-27" value="" style="endArrow=classic;html=1;rounded=0;exitX=1.02;exitY=0.15;exitDx=0;exitDy=0;exitPerimeter=0;" parent="1" edge="1">
          <mxGeometry width="50" height="50" relative="1" as="geometry">
            <mxPoint x="465" y="290" as="sourcePoint" />
            <mxPoint x="590" y="290" as="targetPoint" />
          </mxGeometry>
        </mxCell>
        <mxCell id="dV1bL2ieKj4Z74G61Acg-28" value="" style="endArrow=classic;html=1;rounded=0;entryX=-0.068;entryY=0.199;entryDx=0;entryDy=0;entryPerimeter=0;exitX=0.997;exitY=0.2;exitDx=0;exitDy=0;exitPerimeter=0;" parent="1" edge="1">
          <mxGeometry width="50" height="50" relative="1" as="geometry">
            <mxPoint x="600" y="299.86" as="sourcePoint" />
            <mxPoint x="749" y="299.86" as="targetPoint" />
          </mxGeometry>
        </mxCell>
        <mxCell id="dV1bL2ieKj4Z74G61Acg-29" value="" style="endArrow=classic;html=1;rounded=0;entryX=1.047;entryY=0.3;entryDx=0;entryDy=0;entryPerimeter=0;exitX=0;exitY=0.3;exitDx=0;exitDy=0;exitPerimeter=0;dashed=1;" parent="1" edge="1">
          <mxGeometry width="50" height="50" relative="1" as="geometry">
            <mxPoint x="750" y="319.86" as="sourcePoint" />
            <mxPoint x="600" y="319.86" as="targetPoint" />
          </mxGeometry>
        </mxCell>
        <mxCell id="dV1bL2ieKj4Z74G61Acg-30" value="" style="endArrow=classic;html=1;rounded=0;entryX=1.032;entryY=0.35;entryDx=0;entryDy=0;entryPerimeter=0;dashed=1;" parent="1" edge="1">
          <mxGeometry width="50" height="50" relative="1" as="geometry">
            <mxPoint x="590" y="330" as="sourcePoint" />
            <mxPoint x="465" y="330" as="targetPoint" />
          </mxGeometry>
        </mxCell>
        <mxCell id="dV1bL2ieKj4Z74G61Acg-36" value="" style="endArrow=classic;html=1;rounded=0;exitX=0.167;exitY=0.036;exitDx=0;exitDy=0;exitPerimeter=0;entryX=-0.053;entryY=0.1;entryDx=0;entryDy=0;entryPerimeter=0;" parent="1" edge="1" source="75vP7e7INXOybPQJv8t6-1">
          <mxGeometry width="50" height="50" relative="1" as="geometry">
            <mxPoint x="90" y="200" as="sourcePoint" />
            <mxPoint x="454" y="200" as="targetPoint" />
          </mxGeometry>
        </mxCell>
        <mxCell id="dV1bL2ieKj4Z74G61Acg-37" value="" style="endArrow=classic;html=1;rounded=0;exitX=1.02;exitY=0.15;exitDx=0;exitDy=0;exitPerimeter=0;" parent="1" edge="1">
          <mxGeometry width="50" height="50" relative="1" as="geometry">
            <mxPoint x="465" y="210" as="sourcePoint" />
            <mxPoint x="590" y="210" as="targetPoint" />
          </mxGeometry>
        </mxCell>
        <mxCell id="dV1bL2ieKj4Z74G61Acg-38" value="" style="endArrow=classic;html=1;rounded=0;entryX=-0.068;entryY=0.199;entryDx=0;entryDy=0;entryPerimeter=0;exitX=0.997;exitY=0.2;exitDx=0;exitDy=0;exitPerimeter=0;" parent="1" edge="1">
          <mxGeometry width="50" height="50" relative="1" as="geometry">
            <mxPoint x="600" y="219.86" as="sourcePoint" />
            <mxPoint x="749" y="219.86" as="targetPoint" />
          </mxGeometry>
        </mxCell>
        <mxCell id="dV1bL2ieKj4Z74G61Acg-39" value="" style="endArrow=classic;html=1;rounded=0;entryX=1.047;entryY=0.3;entryDx=0;entryDy=0;entryPerimeter=0;exitX=0;exitY=0.3;exitDx=0;exitDy=0;exitPerimeter=0;dashed=1;" parent="1" edge="1">
          <mxGeometry width="50" height="50" relative="1" as="geometry">
            <mxPoint x="750" y="239.86" as="sourcePoint" />
            <mxPoint x="600" y="239.86" as="targetPoint" />
          </mxGeometry>
        </mxCell>
        <mxCell id="dV1bL2ieKj4Z74G61Acg-40" value="" style="endArrow=classic;html=1;rounded=0;entryX=1.032;entryY=0.35;entryDx=0;entryDy=0;entryPerimeter=0;dashed=1;" parent="1" edge="1">
          <mxGeometry width="50" height="50" relative="1" as="geometry">
            <mxPoint x="590" y="250" as="sourcePoint" />
            <mxPoint x="465" y="250" as="targetPoint" />
          </mxGeometry>
        </mxCell>
        <mxCell id="dV1bL2ieKj4Z74G61Acg-43" value="" style="endArrow=classic;html=1;rounded=0;exitX=0.033;exitY=0.179;exitDx=0;exitDy=0;exitPerimeter=0;entryX=-0.053;entryY=0.1;entryDx=0;entryDy=0;entryPerimeter=0;" parent="1" edge="1" source="75vP7e7INXOybPQJv8t6-1">
          <mxGeometry width="50" height="50" relative="1" as="geometry">
            <mxPoint x="90" y="360" as="sourcePoint" />
            <mxPoint x="454" y="360" as="targetPoint" />
          </mxGeometry>
        </mxCell>
        <mxCell id="dV1bL2ieKj4Z74G61Acg-44" value="" style="endArrow=classic;html=1;rounded=0;exitX=1.02;exitY=0.15;exitDx=0;exitDy=0;exitPerimeter=0;" parent="1" edge="1">
          <mxGeometry width="50" height="50" relative="1" as="geometry">
            <mxPoint x="465" y="370" as="sourcePoint" />
            <mxPoint x="590" y="370" as="targetPoint" />
          </mxGeometry>
        </mxCell>
        <mxCell id="dV1bL2ieKj4Z74G61Acg-45" value="" style="endArrow=classic;html=1;rounded=0;entryX=-0.068;entryY=0.199;entryDx=0;entryDy=0;entryPerimeter=0;exitX=0.997;exitY=0.2;exitDx=0;exitDy=0;exitPerimeter=0;" parent="1" edge="1">
          <mxGeometry width="50" height="50" relative="1" as="geometry">
            <mxPoint x="600" y="374.83000000000004" as="sourcePoint" />
            <mxPoint x="749" y="374.83000000000004" as="targetPoint" />
          </mxGeometry>
        </mxCell>
        <mxCell id="dV1bL2ieKj4Z74G61Acg-46" value="" style="endArrow=classic;html=1;rounded=0;entryX=1.047;entryY=0.3;entryDx=0;entryDy=0;entryPerimeter=0;exitX=0;exitY=0.3;exitDx=0;exitDy=0;exitPerimeter=0;dashed=1;" parent="1" edge="1">
          <mxGeometry width="50" height="50" relative="1" as="geometry">
            <mxPoint x="750" y="389.83000000000004" as="sourcePoint" />
            <mxPoint x="600" y="389.83000000000004" as="targetPoint" />
          </mxGeometry>
        </mxCell>
        <mxCell id="dV1bL2ieKj4Z74G61Acg-47" value="" style="endArrow=classic;html=1;rounded=0;entryX=1.032;entryY=0.35;entryDx=0;entryDy=0;entryPerimeter=0;dashed=1;" parent="1" edge="1">
          <mxGeometry width="50" height="50" relative="1" as="geometry">
            <mxPoint x="590" y="400" as="sourcePoint" />
            <mxPoint x="465" y="400" as="targetPoint" />
          </mxGeometry>
        </mxCell>
        <mxCell id="dV1bL2ieKj4Z74G61Acg-48" value="" style="endArrow=classic;html=1;rounded=0;exitX=0.3;exitY=0.241;exitDx=0;exitDy=0;exitPerimeter=0;entryX=-0.053;entryY=0.1;entryDx=0;entryDy=0;entryPerimeter=0;" parent="1" edge="1" source="75vP7e7INXOybPQJv8t6-1">
          <mxGeometry width="50" height="50" relative="1" as="geometry">
            <mxPoint x="90" y="430" as="sourcePoint" />
            <mxPoint x="454" y="430" as="targetPoint" />
          </mxGeometry>
        </mxCell>
        <mxCell id="dV1bL2ieKj4Z74G61Acg-49" value="" style="endArrow=classic;html=1;rounded=0;exitX=1.02;exitY=0.15;exitDx=0;exitDy=0;exitPerimeter=0;" parent="1" edge="1">
          <mxGeometry width="50" height="50" relative="1" as="geometry">
            <mxPoint x="465" y="450" as="sourcePoint" />
            <mxPoint x="590" y="450" as="targetPoint" />
          </mxGeometry>
        </mxCell>
        <mxCell id="dV1bL2ieKj4Z74G61Acg-50" value="" style="endArrow=classic;html=1;rounded=0;entryX=-0.068;entryY=0.199;entryDx=0;entryDy=0;entryPerimeter=0;exitX=0.997;exitY=0.2;exitDx=0;exitDy=0;exitPerimeter=0;" parent="1" edge="1">
          <mxGeometry width="50" height="50" relative="1" as="geometry">
            <mxPoint x="600" y="449.86" as="sourcePoint" />
            <mxPoint x="749" y="449.86" as="targetPoint" />
          </mxGeometry>
        </mxCell>
        <mxCell id="dV1bL2ieKj4Z74G61Acg-51" value="" style="endArrow=classic;html=1;rounded=0;entryX=1.047;entryY=0.3;entryDx=0;entryDy=0;entryPerimeter=0;exitX=0;exitY=0.3;exitDx=0;exitDy=0;exitPerimeter=0;dashed=1;" parent="1" edge="1">
          <mxGeometry width="50" height="50" relative="1" as="geometry">
            <mxPoint x="750" y="459.86" as="sourcePoint" />
            <mxPoint x="600" y="459.86" as="targetPoint" />
          </mxGeometry>
        </mxCell>
        <mxCell id="dV1bL2ieKj4Z74G61Acg-52" value="" style="endArrow=classic;html=1;rounded=0;entryX=1.032;entryY=0.35;entryDx=0;entryDy=0;entryPerimeter=0;dashed=1;" parent="1" edge="1">
          <mxGeometry width="50" height="50" relative="1" as="geometry">
            <mxPoint x="590" y="470" as="sourcePoint" />
            <mxPoint x="465" y="470" as="targetPoint" />
          </mxGeometry>
        </mxCell>
        <mxCell id="dV1bL2ieKj4Z74G61Acg-53" value="" style="endArrow=classic;html=1;rounded=0;exitX=0.19;exitY=0.375;exitDx=0;exitDy=0;exitPerimeter=0;entryX=-0.053;entryY=0.1;entryDx=0;entryDy=0;entryPerimeter=0;" parent="1" edge="1" source="75vP7e7INXOybPQJv8t6-1">
          <mxGeometry width="50" height="50" relative="1" as="geometry">
            <mxPoint x="90" y="580" as="sourcePoint" />
            <mxPoint x="454" y="580" as="targetPoint" />
          </mxGeometry>
        </mxCell>
        <mxCell id="dV1bL2ieKj4Z74G61Acg-54" value="" style="endArrow=classic;html=1;rounded=0;exitX=1.02;exitY=0.15;exitDx=0;exitDy=0;exitPerimeter=0;" parent="1" edge="1">
          <mxGeometry width="50" height="50" relative="1" as="geometry">
            <mxPoint x="467.5" y="600" as="sourcePoint" />
            <mxPoint x="592.5" y="600" as="targetPoint" />
          </mxGeometry>
        </mxCell>
        <mxCell id="dV1bL2ieKj4Z74G61Acg-55" value="" style="endArrow=classic;html=1;rounded=0;entryX=-0.068;entryY=0.199;entryDx=0;entryDy=0;entryPerimeter=0;exitX=0.997;exitY=0.2;exitDx=0;exitDy=0;exitPerimeter=0;" parent="1" edge="1">
          <mxGeometry width="50" height="50" relative="1" as="geometry">
            <mxPoint x="600" y="604.97" as="sourcePoint" />
            <mxPoint x="749" y="604.97" as="targetPoint" />
          </mxGeometry>
        </mxCell>
        <mxCell id="dV1bL2ieKj4Z74G61Acg-56" value="" style="endArrow=classic;html=1;rounded=0;entryX=1.047;entryY=0.3;entryDx=0;entryDy=0;entryPerimeter=0;exitX=0;exitY=0.3;exitDx=0;exitDy=0;exitPerimeter=0;dashed=1;" parent="1" edge="1">
          <mxGeometry width="50" height="50" relative="1" as="geometry">
            <mxPoint x="750" y="620" as="sourcePoint" />
            <mxPoint x="600" y="620" as="targetPoint" />
          </mxGeometry>
        </mxCell>
        <mxCell id="dV1bL2ieKj4Z74G61Acg-57" value="" style="endArrow=classic;html=1;rounded=0;entryX=1.032;entryY=0.35;entryDx=0;entryDy=0;entryPerimeter=0;dashed=1;" parent="1" edge="1">
          <mxGeometry width="50" height="50" relative="1" as="geometry">
            <mxPoint x="590" y="630" as="sourcePoint" />
            <mxPoint x="465" y="630" as="targetPoint" />
          </mxGeometry>
        </mxCell>
        <mxCell id="dV1bL2ieKj4Z74G61Acg-58" value="" style="endArrow=classic;html=1;rounded=0;exitX=1;exitY=0.304;exitDx=0;exitDy=0;exitPerimeter=0;entryX=-0.053;entryY=0.1;entryDx=0;entryDy=0;entryPerimeter=0;" parent="1" edge="1" source="75vP7e7INXOybPQJv8t6-1">
          <mxGeometry width="50" height="50" relative="1" as="geometry">
            <mxPoint x="90" y="500" as="sourcePoint" />
            <mxPoint x="454" y="500" as="targetPoint" />
          </mxGeometry>
        </mxCell>
        <mxCell id="dV1bL2ieKj4Z74G61Acg-59" value="" style="endArrow=classic;html=1;rounded=0;exitX=1.02;exitY=0.15;exitDx=0;exitDy=0;exitPerimeter=0;" parent="1" edge="1">
          <mxGeometry width="50" height="50" relative="1" as="geometry">
            <mxPoint x="465" y="520" as="sourcePoint" />
            <mxPoint x="590" y="520" as="targetPoint" />
          </mxGeometry>
        </mxCell>
        <mxCell id="dV1bL2ieKj4Z74G61Acg-60" value="" style="endArrow=classic;html=1;rounded=0;entryX=-0.068;entryY=0.199;entryDx=0;entryDy=0;entryPerimeter=0;exitX=0.997;exitY=0.2;exitDx=0;exitDy=0;exitPerimeter=0;" parent="1" edge="1">
          <mxGeometry width="50" height="50" relative="1" as="geometry">
            <mxPoint x="600" y="530" as="sourcePoint" />
            <mxPoint x="749" y="530" as="targetPoint" />
          </mxGeometry>
        </mxCell>
        <mxCell id="dV1bL2ieKj4Z74G61Acg-61" value="" style="endArrow=classic;html=1;rounded=0;entryX=1.047;entryY=0.3;entryDx=0;entryDy=0;entryPerimeter=0;exitX=0;exitY=0.3;exitDx=0;exitDy=0;exitPerimeter=0;dashed=1;" parent="1" edge="1">
          <mxGeometry width="50" height="50" relative="1" as="geometry">
            <mxPoint x="750" y="540" as="sourcePoint" />
            <mxPoint x="600" y="540" as="targetPoint" />
          </mxGeometry>
        </mxCell>
        <mxCell id="dV1bL2ieKj4Z74G61Acg-62" value="" style="endArrow=classic;html=1;rounded=0;entryX=1.032;entryY=0.35;entryDx=0;entryDy=0;entryPerimeter=0;dashed=1;" parent="1" edge="1">
          <mxGeometry width="50" height="50" relative="1" as="geometry">
            <mxPoint x="592.5" y="550" as="sourcePoint" />
            <mxPoint x="467.5" y="550" as="targetPoint" />
          </mxGeometry>
        </mxCell>
        <mxCell id="dV1bL2ieKj4Z74G61Acg-63" value="" style="endArrow=classic;html=1;rounded=0;exitX=0.049;exitY=0.446;exitDx=0;exitDy=0;exitPerimeter=0;entryX=-0.053;entryY=0.1;entryDx=0;entryDy=0;entryPerimeter=0;" parent="1" edge="1" source="75vP7e7INXOybPQJv8t6-1">
          <mxGeometry width="50" height="50" relative="1" as="geometry">
            <mxPoint x="90" y="660" as="sourcePoint" />
            <mxPoint x="454" y="660" as="targetPoint" />
          </mxGeometry>
        </mxCell>
        <mxCell id="dV1bL2ieKj4Z74G61Acg-64" value="" style="endArrow=classic;html=1;rounded=0;exitX=1.02;exitY=0.15;exitDx=0;exitDy=0;exitPerimeter=0;" parent="1" edge="1">
          <mxGeometry width="50" height="50" relative="1" as="geometry">
            <mxPoint x="465" y="680" as="sourcePoint" />
            <mxPoint x="590" y="680" as="targetPoint" />
          </mxGeometry>
        </mxCell>
        <mxCell id="dV1bL2ieKj4Z74G61Acg-65" value="" style="endArrow=classic;html=1;rounded=0;entryX=-0.068;entryY=0.199;entryDx=0;entryDy=0;entryPerimeter=0;exitX=0.997;exitY=0.2;exitDx=0;exitDy=0;exitPerimeter=0;" parent="1" edge="1">
          <mxGeometry width="50" height="50" relative="1" as="geometry">
            <mxPoint x="601" y="689.8000000000001" as="sourcePoint" />
            <mxPoint x="750" y="689.8000000000001" as="targetPoint" />
          </mxGeometry>
        </mxCell>
        <mxCell id="dV1bL2ieKj4Z74G61Acg-66" value="" style="endArrow=classic;html=1;rounded=0;entryX=1.047;entryY=0.3;entryDx=0;entryDy=0;entryPerimeter=0;exitX=0;exitY=0.3;exitDx=0;exitDy=0;exitPerimeter=0;dashed=1;" parent="1" edge="1">
          <mxGeometry width="50" height="50" relative="1" as="geometry">
            <mxPoint x="750" y="699.86" as="sourcePoint" />
            <mxPoint x="600" y="699.86" as="targetPoint" />
          </mxGeometry>
        </mxCell>
        <mxCell id="dV1bL2ieKj4Z74G61Acg-67" value="" style="endArrow=classic;html=1;rounded=0;entryX=1.032;entryY=0.35;entryDx=0;entryDy=0;entryPerimeter=0;dashed=1;" parent="1" edge="1">
          <mxGeometry width="50" height="50" relative="1" as="geometry">
            <mxPoint x="590" y="710" as="sourcePoint" />
            <mxPoint x="465" y="710" as="targetPoint" />
          </mxGeometry>
        </mxCell>
        <mxCell id="dV1bL2ieKj4Z74G61Acg-68" value="" style="endArrow=classic;html=1;rounded=0;entryX=-0.053;entryY=0.1;entryDx=0;entryDy=0;entryPerimeter=0;exitX=0;exitY=0.509;exitDx=0;exitDy=0;exitPerimeter=0;" parent="1" edge="1" source="75vP7e7INXOybPQJv8t6-1">
          <mxGeometry width="50" height="50" relative="1" as="geometry">
            <mxPoint x="180" y="730" as="sourcePoint" />
            <mxPoint x="454" y="730" as="targetPoint" />
          </mxGeometry>
        </mxCell>
        <mxCell id="dV1bL2ieKj4Z74G61Acg-69" value="" style="endArrow=classic;html=1;rounded=0;entryX=-0.068;entryY=0.199;entryDx=0;entryDy=0;entryPerimeter=0;exitX=0.997;exitY=0.2;exitDx=0;exitDy=0;exitPerimeter=0;" parent="1" edge="1">
          <mxGeometry width="50" height="50" relative="1" as="geometry">
            <mxPoint x="601" y="754.67" as="sourcePoint" />
            <mxPoint x="750" y="754.67" as="targetPoint" />
          </mxGeometry>
        </mxCell>
        <mxCell id="dV1bL2ieKj4Z74G61Acg-70" value="" style="endArrow=classic;html=1;rounded=0;entryX=1.047;entryY=0.3;entryDx=0;entryDy=0;entryPerimeter=0;exitX=0;exitY=0.3;exitDx=0;exitDy=0;exitPerimeter=0;dashed=1;" parent="1" edge="1">
          <mxGeometry width="50" height="50" relative="1" as="geometry">
            <mxPoint x="750" y="764.86" as="sourcePoint" />
            <mxPoint x="600" y="764.86" as="targetPoint" />
          </mxGeometry>
        </mxCell>
        <mxCell id="dV1bL2ieKj4Z74G61Acg-71" value="" style="endArrow=classic;html=1;rounded=0;entryX=1.032;entryY=0.35;entryDx=0;entryDy=0;entryPerimeter=0;dashed=1;" parent="1" edge="1">
          <mxGeometry width="50" height="50" relative="1" as="geometry">
            <mxPoint x="590" y="770" as="sourcePoint" />
            <mxPoint x="465" y="770" as="targetPoint" />
          </mxGeometry>
        </mxCell>
        <mxCell id="dV1bL2ieKj4Z74G61Acg-73" value="Create User Profile" style="text;html=1;align=center;verticalAlign=middle;whiteSpace=wrap;rounded=0;" parent="1" vertex="1">
          <mxGeometry x="330" y="171" width="110" height="30" as="geometry" />
        </mxCell>
        <mxCell id="dV1bL2ieKj4Z74G61Acg-74" value="View&lt;div&gt;User Profile&lt;/div&gt;" style="text;html=1;align=center;verticalAlign=middle;whiteSpace=wrap;rounded=0;" parent="1" vertex="1">
          <mxGeometry x="350" y="280" width="90" height="30" as="geometry" />
        </mxCell>
        <mxCell id="dV1bL2ieKj4Z74G61Acg-75" value="Update User Profile" style="text;html=1;align=center;verticalAlign=middle;whiteSpace=wrap;rounded=0;" parent="1" vertex="1">
          <mxGeometry x="340" y="360" width="110" height="30" as="geometry" />
        </mxCell>
        <mxCell id="dV1bL2ieKj4Z74G61Acg-76" value="Delete User Profile" style="text;html=1;align=center;verticalAlign=middle;whiteSpace=wrap;rounded=0;" parent="1" vertex="1">
          <mxGeometry x="340" y="430" width="110" height="30" as="geometry" />
        </mxCell>
        <mxCell id="dV1bL2ieKj4Z74G61Acg-77" value="Create Playlist" style="text;html=1;align=center;verticalAlign=middle;resizable=0;points=[];autosize=1;strokeColor=none;fillColor=none;" parent="1" vertex="1">
          <mxGeometry x="345" y="500" width="100" height="30" as="geometry" />
        </mxCell>
        <mxCell id="dV1bL2ieKj4Z74G61Acg-78" value="Get Playlist" style="text;html=1;align=center;verticalAlign=middle;resizable=0;points=[];autosize=1;strokeColor=none;fillColor=none;" parent="1" vertex="1">
          <mxGeometry x="355" y="583" width="80" height="30" as="geometry" />
        </mxCell>
        <mxCell id="dV1bL2ieKj4Z74G61Acg-79" value="Update Playlist" style="text;html=1;align=center;verticalAlign=middle;resizable=0;points=[];autosize=1;strokeColor=none;fillColor=none;" parent="1" vertex="1">
          <mxGeometry x="340" y="660" width="100" height="30" as="geometry" />
        </mxCell>
        <mxCell id="dV1bL2ieKj4Z74G61Acg-80" value="Delete Playlist" style="text;html=1;align=center;verticalAlign=middle;resizable=0;points=[];autosize=1;strokeColor=none;fillColor=none;" parent="1" vertex="1">
          <mxGeometry x="340" y="730" width="100" height="30" as="geometry" />
        </mxCell>
        <mxCell id="dV1bL2ieKj4Z74G61Acg-81" value="" style="endArrow=classic;html=1;rounded=0;exitX=1;exitY=0.643;exitDx=0;exitDy=0;exitPerimeter=0;entryX=-0.053;entryY=0.1;entryDx=0;entryDy=0;entryPerimeter=0;" parent="1" edge="1" source="75vP7e7INXOybPQJv8t6-1">
          <mxGeometry width="50" height="50" relative="1" as="geometry">
            <mxPoint x="90" y="880" as="sourcePoint" />
            <mxPoint x="454" y="880" as="targetPoint" />
          </mxGeometry>
        </mxCell>
        <mxCell id="dV1bL2ieKj4Z74G61Acg-82" value="" style="endArrow=classic;html=1;rounded=0;exitX=1.02;exitY=0.15;exitDx=0;exitDy=0;exitPerimeter=0;" parent="1" edge="1">
          <mxGeometry width="50" height="50" relative="1" as="geometry">
            <mxPoint x="465" y="890" as="sourcePoint" />
            <mxPoint x="590" y="890" as="targetPoint" />
          </mxGeometry>
        </mxCell>
        <mxCell id="dV1bL2ieKj4Z74G61Acg-83" value="" style="endArrow=classic;html=1;rounded=0;entryX=-0.068;entryY=0.199;entryDx=0;entryDy=0;entryPerimeter=0;exitX=0.997;exitY=0.2;exitDx=0;exitDy=0;exitPerimeter=0;" parent="1" edge="1">
          <mxGeometry width="50" height="50" relative="1" as="geometry">
            <mxPoint x="600" y="899.86" as="sourcePoint" />
            <mxPoint x="749" y="899.86" as="targetPoint" />
          </mxGeometry>
        </mxCell>
        <mxCell id="dV1bL2ieKj4Z74G61Acg-84" value="" style="endArrow=classic;html=1;rounded=0;entryX=1.047;entryY=0.3;entryDx=0;entryDy=0;entryPerimeter=0;exitX=0;exitY=0.3;exitDx=0;exitDy=0;exitPerimeter=0;dashed=1;" parent="1" edge="1">
          <mxGeometry width="50" height="50" relative="1" as="geometry">
            <mxPoint x="750" y="910" as="sourcePoint" />
            <mxPoint x="600" y="910" as="targetPoint" />
          </mxGeometry>
        </mxCell>
        <mxCell id="dV1bL2ieKj4Z74G61Acg-85" value="" style="endArrow=classic;html=1;rounded=0;entryX=1.032;entryY=0.35;entryDx=0;entryDy=0;entryPerimeter=0;dashed=1;" parent="1" edge="1">
          <mxGeometry width="50" height="50" relative="1" as="geometry">
            <mxPoint x="587.5" y="920" as="sourcePoint" />
            <mxPoint x="462.5" y="920" as="targetPoint" />
          </mxGeometry>
        </mxCell>
        <mxCell id="dV1bL2ieKj4Z74G61Acg-86" value="" style="endArrow=classic;html=1;rounded=0;exitX=0;exitY=0.571;exitDx=0;exitDy=0;exitPerimeter=0;entryX=-0.053;entryY=0.1;entryDx=0;entryDy=0;entryPerimeter=0;" parent="1" edge="1" source="75vP7e7INXOybPQJv8t6-1">
          <mxGeometry width="50" height="50" relative="1" as="geometry">
            <mxPoint x="90" y="800" as="sourcePoint" />
            <mxPoint x="454" y="800" as="targetPoint" />
          </mxGeometry>
        </mxCell>
        <mxCell id="dV1bL2ieKj4Z74G61Acg-87" value="" style="endArrow=classic;html=1;rounded=0;exitX=1.02;exitY=0.15;exitDx=0;exitDy=0;exitPerimeter=0;" parent="1" edge="1">
          <mxGeometry width="50" height="50" relative="1" as="geometry">
            <mxPoint x="465" y="820" as="sourcePoint" />
            <mxPoint x="590" y="820" as="targetPoint" />
          </mxGeometry>
        </mxCell>
        <mxCell id="dV1bL2ieKj4Z74G61Acg-88" value="" style="endArrow=classic;html=1;rounded=0;entryX=-0.068;entryY=0.199;entryDx=0;entryDy=0;entryPerimeter=0;exitX=0.997;exitY=0.2;exitDx=0;exitDy=0;exitPerimeter=0;" parent="1" edge="1">
          <mxGeometry width="50" height="50" relative="1" as="geometry">
            <mxPoint x="600" y="829.67" as="sourcePoint" />
            <mxPoint x="749" y="829.67" as="targetPoint" />
          </mxGeometry>
        </mxCell>
        <mxCell id="dV1bL2ieKj4Z74G61Acg-89" value="" style="endArrow=classic;html=1;rounded=0;entryX=1.047;entryY=0.3;entryDx=0;entryDy=0;entryPerimeter=0;exitX=0;exitY=0.3;exitDx=0;exitDy=0;exitPerimeter=0;dashed=1;" parent="1" edge="1">
          <mxGeometry width="50" height="50" relative="1" as="geometry">
            <mxPoint x="750" y="839.86" as="sourcePoint" />
            <mxPoint x="600" y="839.86" as="targetPoint" />
          </mxGeometry>
        </mxCell>
        <mxCell id="dV1bL2ieKj4Z74G61Acg-90" value="" style="endArrow=classic;html=1;rounded=0;entryX=1.032;entryY=0.35;entryDx=0;entryDy=0;entryPerimeter=0;dashed=1;" parent="1" edge="1">
          <mxGeometry width="50" height="50" relative="1" as="geometry">
            <mxPoint x="590" y="850" as="sourcePoint" />
            <mxPoint x="465" y="850" as="targetPoint" />
          </mxGeometry>
        </mxCell>
        <mxCell id="dV1bL2ieKj4Z74G61Acg-91" value="Like Music" style="text;html=1;align=center;verticalAlign=middle;resizable=0;points=[];autosize=1;strokeColor=none;fillColor=none;" parent="1" vertex="1">
          <mxGeometry x="350" y="800" width="80" height="30" as="geometry" />
        </mxCell>
        <mxCell id="dV1bL2ieKj4Z74G61Acg-92" value="Unlike Music" style="text;html=1;align=center;verticalAlign=middle;resizable=0;points=[];autosize=1;strokeColor=none;fillColor=none;" parent="1" vertex="1">
          <mxGeometry x="345" y="880" width="90" height="30" as="geometry" />
        </mxCell>
        <mxCell id="dV1bL2ieKj4Z74G61Acg-93" value="" style="endArrow=classic;html=1;rounded=0;entryX=-0.053;entryY=0.1;entryDx=0;entryDy=0;entryPerimeter=0;exitX=0.15;exitY=0.786;exitDx=0;exitDy=0;exitPerimeter=0;" parent="1" edge="1" source="75vP7e7INXOybPQJv8t6-1">
          <mxGeometry width="50" height="50" relative="1" as="geometry">
            <mxPoint x="180" y="1040" as="sourcePoint" />
            <mxPoint x="454" y="1040" as="targetPoint" />
          </mxGeometry>
        </mxCell>
        <mxCell id="dV1bL2ieKj4Z74G61Acg-94" value="" style="endArrow=classic;html=1;rounded=0;exitX=1.02;exitY=0.15;exitDx=0;exitDy=0;exitPerimeter=0;" parent="1" edge="1">
          <mxGeometry width="50" height="50" relative="1" as="geometry">
            <mxPoint x="465" y="1050" as="sourcePoint" />
            <mxPoint x="590" y="1050" as="targetPoint" />
          </mxGeometry>
        </mxCell>
        <mxCell id="dV1bL2ieKj4Z74G61Acg-95" value="" style="endArrow=classic;html=1;rounded=0;entryX=-0.068;entryY=0.199;entryDx=0;entryDy=0;entryPerimeter=0;exitX=0.997;exitY=0.2;exitDx=0;exitDy=0;exitPerimeter=0;" parent="1" edge="1">
          <mxGeometry width="50" height="50" relative="1" as="geometry">
            <mxPoint x="600" y="1059.86" as="sourcePoint" />
            <mxPoint x="749" y="1059.86" as="targetPoint" />
          </mxGeometry>
        </mxCell>
        <mxCell id="dV1bL2ieKj4Z74G61Acg-96" value="" style="endArrow=classic;html=1;rounded=0;entryX=1.047;entryY=0.3;entryDx=0;entryDy=0;entryPerimeter=0;exitX=0;exitY=0.3;exitDx=0;exitDy=0;exitPerimeter=0;dashed=1;" parent="1" edge="1">
          <mxGeometry width="50" height="50" relative="1" as="geometry">
            <mxPoint x="750" y="1079.86" as="sourcePoint" />
            <mxPoint x="600" y="1079.86" as="targetPoint" />
          </mxGeometry>
        </mxCell>
        <mxCell id="dV1bL2ieKj4Z74G61Acg-97" value="" style="endArrow=classic;html=1;rounded=0;entryX=1.032;entryY=0.35;entryDx=0;entryDy=0;entryPerimeter=0;dashed=1;" parent="1" edge="1">
          <mxGeometry width="50" height="50" relative="1" as="geometry">
            <mxPoint x="590" y="1090" as="sourcePoint" />
            <mxPoint x="465" y="1090" as="targetPoint" />
          </mxGeometry>
        </mxCell>
        <mxCell id="dV1bL2ieKj4Z74G61Acg-98" value="" style="endArrow=classic;html=1;rounded=0;exitX=0.35;exitY=0.714;exitDx=0;exitDy=0;exitPerimeter=0;entryX=-0.053;entryY=0.1;entryDx=0;entryDy=0;entryPerimeter=0;" parent="1" edge="1" source="75vP7e7INXOybPQJv8t6-1">
          <mxGeometry width="50" height="50" relative="1" as="geometry">
            <mxPoint x="90" y="960" as="sourcePoint" />
            <mxPoint x="454" y="960" as="targetPoint" />
          </mxGeometry>
        </mxCell>
        <mxCell id="dV1bL2ieKj4Z74G61Acg-99" value="" style="endArrow=classic;html=1;rounded=0;exitX=1.02;exitY=0.15;exitDx=0;exitDy=0;exitPerimeter=0;" parent="1" edge="1">
          <mxGeometry width="50" height="50" relative="1" as="geometry">
            <mxPoint x="465" y="982.9399999999999" as="sourcePoint" />
            <mxPoint x="590" y="982.9399999999999" as="targetPoint" />
          </mxGeometry>
        </mxCell>
        <mxCell id="dV1bL2ieKj4Z74G61Acg-100" value="" style="endArrow=classic;html=1;rounded=0;entryX=-0.068;entryY=0.199;entryDx=0;entryDy=0;entryPerimeter=0;exitX=0.997;exitY=0.2;exitDx=0;exitDy=0;exitPerimeter=0;" parent="1" edge="1">
          <mxGeometry width="50" height="50" relative="1" as="geometry">
            <mxPoint x="600" y="990.61" as="sourcePoint" />
            <mxPoint x="749" y="990.61" as="targetPoint" />
          </mxGeometry>
        </mxCell>
        <mxCell id="dV1bL2ieKj4Z74G61Acg-101" value="" style="endArrow=classic;html=1;rounded=0;entryX=1.047;entryY=0.3;entryDx=0;entryDy=0;entryPerimeter=0;exitX=0;exitY=0.3;exitDx=0;exitDy=0;exitPerimeter=0;dashed=1;" parent="1" edge="1">
          <mxGeometry width="50" height="50" relative="1" as="geometry">
            <mxPoint x="750" y="997.74" as="sourcePoint" />
            <mxPoint x="600" y="997.74" as="targetPoint" />
          </mxGeometry>
        </mxCell>
        <mxCell id="dV1bL2ieKj4Z74G61Acg-102" value="" style="endArrow=classic;html=1;rounded=0;entryX=1.032;entryY=0.35;entryDx=0;entryDy=0;entryPerimeter=0;dashed=1;" parent="1" edge="1">
          <mxGeometry width="50" height="50" relative="1" as="geometry">
            <mxPoint x="590" y="1010" as="sourcePoint" />
            <mxPoint x="465" y="1010" as="targetPoint" />
          </mxGeometry>
        </mxCell>
        <mxCell id="dV1bL2ieKj4Z74G61Acg-103" value="" style="endArrow=classic;html=1;rounded=0;exitX=0.7;exitY=0.857;exitDx=0;exitDy=0;exitPerimeter=0;entryX=-0.053;entryY=0.1;entryDx=0;entryDy=0;entryPerimeter=0;" parent="1" edge="1" source="75vP7e7INXOybPQJv8t6-1">
          <mxGeometry width="50" height="50" relative="1" as="geometry">
            <mxPoint x="90" y="1120" as="sourcePoint" />
            <mxPoint x="454" y="1120" as="targetPoint" />
          </mxGeometry>
        </mxCell>
        <mxCell id="dV1bL2ieKj4Z74G61Acg-104" value="" style="endArrow=classic;html=1;rounded=0;exitX=1.02;exitY=0.15;exitDx=0;exitDy=0;exitPerimeter=0;" parent="1" edge="1">
          <mxGeometry width="50" height="50" relative="1" as="geometry">
            <mxPoint x="465" y="1130" as="sourcePoint" />
            <mxPoint x="590" y="1130" as="targetPoint" />
          </mxGeometry>
        </mxCell>
        <mxCell id="dV1bL2ieKj4Z74G61Acg-105" value="" style="endArrow=classic;html=1;rounded=0;entryX=-0.068;entryY=0.199;entryDx=0;entryDy=0;entryPerimeter=0;exitX=0.997;exitY=0.2;exitDx=0;exitDy=0;exitPerimeter=0;" parent="1" edge="1">
          <mxGeometry width="50" height="50" relative="1" as="geometry">
            <mxPoint x="600" y="1139.86" as="sourcePoint" />
            <mxPoint x="749" y="1139.86" as="targetPoint" />
          </mxGeometry>
        </mxCell>
        <mxCell id="dV1bL2ieKj4Z74G61Acg-106" value="" style="endArrow=classic;html=1;rounded=0;entryX=1.047;entryY=0.3;entryDx=0;entryDy=0;entryPerimeter=0;exitX=0;exitY=0.3;exitDx=0;exitDy=0;exitPerimeter=0;dashed=1;" parent="1" edge="1">
          <mxGeometry width="50" height="50" relative="1" as="geometry">
            <mxPoint x="750" y="1159.86" as="sourcePoint" />
            <mxPoint x="600" y="1159.86" as="targetPoint" />
          </mxGeometry>
        </mxCell>
        <mxCell id="dV1bL2ieKj4Z74G61Acg-107" value="" style="endArrow=classic;html=1;rounded=0;entryX=1.032;entryY=0.35;entryDx=0;entryDy=0;entryPerimeter=0;dashed=1;" parent="1" edge="1">
          <mxGeometry width="50" height="50" relative="1" as="geometry">
            <mxPoint x="590" y="1170" as="sourcePoint" />
            <mxPoint x="465" y="1170" as="targetPoint" />
          </mxGeometry>
        </mxCell>
        <mxCell id="dV1bL2ieKj4Z74G61Acg-108" value="" style="endArrow=classic;html=1;rounded=0;entryX=-0.053;entryY=0.1;entryDx=0;entryDy=0;entryPerimeter=0;" parent="1" edge="1">
          <mxGeometry width="50" height="50" relative="1" as="geometry">
            <mxPoint x="170" y="1190" as="sourcePoint" />
            <mxPoint x="454" y="1190" as="targetPoint" />
          </mxGeometry>
        </mxCell>
        <mxCell id="dV1bL2ieKj4Z74G61Acg-109" value="" style="endArrow=classic;html=1;rounded=0;exitX=1.02;exitY=0.15;exitDx=0;exitDy=0;exitPerimeter=0;" parent="1" edge="1">
          <mxGeometry width="50" height="50" relative="1" as="geometry">
            <mxPoint x="465" y="1214.67" as="sourcePoint" />
            <mxPoint x="590" y="1214.67" as="targetPoint" />
          </mxGeometry>
        </mxCell>
        <mxCell id="dV1bL2ieKj4Z74G61Acg-110" value="" style="endArrow=classic;html=1;rounded=0;entryX=-0.068;entryY=0.199;entryDx=0;entryDy=0;entryPerimeter=0;exitX=0.997;exitY=0.2;exitDx=0;exitDy=0;exitPerimeter=0;" parent="1" edge="1">
          <mxGeometry width="50" height="50" relative="1" as="geometry">
            <mxPoint x="601" y="1220" as="sourcePoint" />
            <mxPoint x="750" y="1220" as="targetPoint" />
          </mxGeometry>
        </mxCell>
        <mxCell id="dV1bL2ieKj4Z74G61Acg-111" value="" style="endArrow=classic;html=1;rounded=0;entryX=1.047;entryY=0.3;entryDx=0;entryDy=0;entryPerimeter=0;exitX=0;exitY=0.3;exitDx=0;exitDy=0;exitPerimeter=0;dashed=1;" parent="1" edge="1">
          <mxGeometry width="50" height="50" relative="1" as="geometry">
            <mxPoint x="750" y="1229.86" as="sourcePoint" />
            <mxPoint x="600" y="1229.86" as="targetPoint" />
          </mxGeometry>
        </mxCell>
        <mxCell id="dV1bL2ieKj4Z74G61Acg-112" value="" style="endArrow=classic;html=1;rounded=0;entryX=1.032;entryY=0.35;entryDx=0;entryDy=0;entryPerimeter=0;dashed=1;" parent="1" edge="1">
          <mxGeometry width="50" height="50" relative="1" as="geometry">
            <mxPoint x="590" y="1240" as="sourcePoint" />
            <mxPoint x="465" y="1240" as="targetPoint" />
          </mxGeometry>
        </mxCell>
        <mxCell id="dV1bL2ieKj4Z74G61Acg-113" value="Post Comment" style="text;html=1;align=center;verticalAlign=middle;resizable=0;points=[];autosize=1;strokeColor=none;fillColor=none;" parent="1" vertex="1">
          <mxGeometry x="340" y="960" width="100" height="30" as="geometry" />
        </mxCell>
        <mxCell id="dV1bL2ieKj4Z74G61Acg-114" value="View Comment" style="text;html=1;align=center;verticalAlign=middle;resizable=0;points=[];autosize=1;strokeColor=none;fillColor=none;" parent="1" vertex="1">
          <mxGeometry x="340" y="1040" width="100" height="30" as="geometry" />
        </mxCell>
        <mxCell id="dV1bL2ieKj4Z74G61Acg-115" value="Update Comment" style="text;html=1;align=center;verticalAlign=middle;resizable=0;points=[];autosize=1;strokeColor=none;fillColor=none;" parent="1" vertex="1">
          <mxGeometry x="335" y="1120" width="120" height="30" as="geometry" />
        </mxCell>
        <mxCell id="dV1bL2ieKj4Z74G61Acg-116" value="Delete Comment" style="text;html=1;align=center;verticalAlign=middle;resizable=0;points=[];autosize=1;strokeColor=none;fillColor=none;" parent="1" vertex="1">
          <mxGeometry x="340" y="1190" width="110" height="30" as="geometry" />
        </mxCell>
        <mxCell id="dV1bL2ieKj4Z74G61Acg-118" value="" style="endArrow=classic;html=1;rounded=0;exitX=0.31;exitY=0.318;exitDx=0;exitDy=0;exitPerimeter=0;entryX=-0.053;entryY=0.1;entryDx=0;entryDy=0;entryPerimeter=0;" parent="1" edge="1" source="75vP7e7INXOybPQJv8t6-86">
          <mxGeometry width="50" height="50" relative="1" as="geometry">
            <mxPoint x="100" y="1657" as="sourcePoint" />
            <mxPoint x="464" y="1657" as="targetPoint" />
          </mxGeometry>
        </mxCell>
        <mxCell id="dV1bL2ieKj4Z74G61Acg-119" value="" style="endArrow=classic;html=1;rounded=0;exitX=1.02;exitY=0.15;exitDx=0;exitDy=0;exitPerimeter=0;" parent="1" edge="1">
          <mxGeometry width="50" height="50" relative="1" as="geometry">
            <mxPoint x="475" y="1667" as="sourcePoint" />
            <mxPoint x="600" y="1667" as="targetPoint" />
          </mxGeometry>
        </mxCell>
        <mxCell id="dV1bL2ieKj4Z74G61Acg-120" value="" style="endArrow=classic;html=1;rounded=0;entryX=-0.068;entryY=0.199;entryDx=0;entryDy=0;entryPerimeter=0;exitX=0.997;exitY=0.2;exitDx=0;exitDy=0;exitPerimeter=0;" parent="1" edge="1">
          <mxGeometry width="50" height="50" relative="1" as="geometry">
            <mxPoint x="610" y="1676.86" as="sourcePoint" />
            <mxPoint x="759" y="1676.86" as="targetPoint" />
          </mxGeometry>
        </mxCell>
        <mxCell id="dV1bL2ieKj4Z74G61Acg-121" value="" style="endArrow=classic;html=1;rounded=0;entryX=1.047;entryY=0.3;entryDx=0;entryDy=0;entryPerimeter=0;exitX=0;exitY=0.3;exitDx=0;exitDy=0;exitPerimeter=0;dashed=1;" parent="1" edge="1">
          <mxGeometry width="50" height="50" relative="1" as="geometry">
            <mxPoint x="760" y="1696.86" as="sourcePoint" />
            <mxPoint x="610" y="1696.86" as="targetPoint" />
          </mxGeometry>
        </mxCell>
        <mxCell id="dV1bL2ieKj4Z74G61Acg-122" value="" style="endArrow=classic;html=1;rounded=0;entryX=1.032;entryY=0.35;entryDx=0;entryDy=0;entryPerimeter=0;dashed=1;" parent="1" edge="1">
          <mxGeometry width="50" height="50" relative="1" as="geometry">
            <mxPoint x="600" y="1707" as="sourcePoint" />
            <mxPoint x="475" y="1707" as="targetPoint" />
          </mxGeometry>
        </mxCell>
        <mxCell id="dV1bL2ieKj4Z74G61Acg-123" value="" style="endArrow=classic;html=1;rounded=0;exitX=0.761;exitY=0.189;exitDx=0;exitDy=0;exitPerimeter=0;entryX=-0.053;entryY=0.1;entryDx=0;entryDy=0;entryPerimeter=0;" parent="1" edge="1" source="75vP7e7INXOybPQJv8t6-86">
          <mxGeometry width="50" height="50" relative="1" as="geometry">
            <mxPoint x="100" y="1577" as="sourcePoint" />
            <mxPoint x="464" y="1577" as="targetPoint" />
          </mxGeometry>
        </mxCell>
        <mxCell id="dV1bL2ieKj4Z74G61Acg-124" value="" style="endArrow=classic;html=1;rounded=0;exitX=1.02;exitY=0.15;exitDx=0;exitDy=0;exitPerimeter=0;" parent="1" edge="1">
          <mxGeometry width="50" height="50" relative="1" as="geometry">
            <mxPoint x="475" y="1587" as="sourcePoint" />
            <mxPoint x="600" y="1587" as="targetPoint" />
          </mxGeometry>
        </mxCell>
        <mxCell id="dV1bL2ieKj4Z74G61Acg-125" value="" style="endArrow=classic;html=1;rounded=0;entryX=-0.068;entryY=0.199;entryDx=0;entryDy=0;entryPerimeter=0;exitX=0.997;exitY=0.2;exitDx=0;exitDy=0;exitPerimeter=0;" parent="1" edge="1">
          <mxGeometry width="50" height="50" relative="1" as="geometry">
            <mxPoint x="610" y="1596.86" as="sourcePoint" />
            <mxPoint x="759" y="1596.86" as="targetPoint" />
          </mxGeometry>
        </mxCell>
        <mxCell id="dV1bL2ieKj4Z74G61Acg-126" value="" style="endArrow=classic;html=1;rounded=0;entryX=1.047;entryY=0.3;entryDx=0;entryDy=0;entryPerimeter=0;exitX=0;exitY=0.3;exitDx=0;exitDy=0;exitPerimeter=0;dashed=1;" parent="1" edge="1">
          <mxGeometry width="50" height="50" relative="1" as="geometry">
            <mxPoint x="760" y="1616.86" as="sourcePoint" />
            <mxPoint x="610" y="1616.86" as="targetPoint" />
          </mxGeometry>
        </mxCell>
        <mxCell id="dV1bL2ieKj4Z74G61Acg-127" value="" style="endArrow=classic;html=1;rounded=0;entryX=1.032;entryY=0.35;entryDx=0;entryDy=0;entryPerimeter=0;dashed=1;" parent="1" edge="1">
          <mxGeometry width="50" height="50" relative="1" as="geometry">
            <mxPoint x="600" y="1627" as="sourcePoint" />
            <mxPoint x="475" y="1627" as="targetPoint" />
          </mxGeometry>
        </mxCell>
        <mxCell id="dV1bL2ieKj4Z74G61Acg-128" value="" style="endArrow=classic;html=1;rounded=0;exitX=0;exitY=0.447;exitDx=0;exitDy=0;exitPerimeter=0;entryX=-0.053;entryY=0.1;entryDx=0;entryDy=0;entryPerimeter=0;" parent="1" edge="1" source="75vP7e7INXOybPQJv8t6-86">
          <mxGeometry width="50" height="50" relative="1" as="geometry">
            <mxPoint x="100" y="1737" as="sourcePoint" />
            <mxPoint x="464" y="1737" as="targetPoint" />
          </mxGeometry>
        </mxCell>
        <mxCell id="dV1bL2ieKj4Z74G61Acg-129" value="" style="endArrow=classic;html=1;rounded=0;exitX=1.02;exitY=0.15;exitDx=0;exitDy=0;exitPerimeter=0;" parent="1" edge="1">
          <mxGeometry width="50" height="50" relative="1" as="geometry">
            <mxPoint x="475" y="1747" as="sourcePoint" />
            <mxPoint x="600" y="1747" as="targetPoint" />
          </mxGeometry>
        </mxCell>
        <mxCell id="dV1bL2ieKj4Z74G61Acg-130" value="" style="endArrow=classic;html=1;rounded=0;entryX=-0.068;entryY=0.199;entryDx=0;entryDy=0;entryPerimeter=0;exitX=0.997;exitY=0.2;exitDx=0;exitDy=0;exitPerimeter=0;" parent="1" edge="1">
          <mxGeometry width="50" height="50" relative="1" as="geometry">
            <mxPoint x="610" y="1756.86" as="sourcePoint" />
            <mxPoint x="759" y="1756.86" as="targetPoint" />
          </mxGeometry>
        </mxCell>
        <mxCell id="dV1bL2ieKj4Z74G61Acg-131" value="" style="endArrow=classic;html=1;rounded=0;entryX=1.047;entryY=0.3;entryDx=0;entryDy=0;entryPerimeter=0;exitX=0;exitY=0.3;exitDx=0;exitDy=0;exitPerimeter=0;dashed=1;" parent="1" edge="1">
          <mxGeometry width="50" height="50" relative="1" as="geometry">
            <mxPoint x="760" y="1776.86" as="sourcePoint" />
            <mxPoint x="610" y="1776.86" as="targetPoint" />
          </mxGeometry>
        </mxCell>
        <mxCell id="dV1bL2ieKj4Z74G61Acg-132" value="" style="endArrow=classic;html=1;rounded=0;entryX=1.032;entryY=0.35;entryDx=0;entryDy=0;entryPerimeter=0;dashed=1;" parent="1" edge="1">
          <mxGeometry width="50" height="50" relative="1" as="geometry">
            <mxPoint x="600" y="1787" as="sourcePoint" />
            <mxPoint x="475" y="1787" as="targetPoint" />
          </mxGeometry>
        </mxCell>
        <mxCell id="dV1bL2ieKj4Z74G61Acg-133" value="" style="endArrow=classic;html=1;rounded=0;exitX=0.258;exitY=0.559;exitDx=0;exitDy=0;exitPerimeter=0;entryX=-0.053;entryY=0.1;entryDx=0;entryDy=0;entryPerimeter=0;" parent="1" edge="1" source="75vP7e7INXOybPQJv8t6-86">
          <mxGeometry width="50" height="50" relative="1" as="geometry">
            <mxPoint x="100" y="1807" as="sourcePoint" />
            <mxPoint x="464" y="1807" as="targetPoint" />
          </mxGeometry>
        </mxCell>
        <mxCell id="dV1bL2ieKj4Z74G61Acg-134" value="" style="endArrow=classic;html=1;rounded=0;exitX=1.02;exitY=0.15;exitDx=0;exitDy=0;exitPerimeter=0;" parent="1" edge="1">
          <mxGeometry width="50" height="50" relative="1" as="geometry">
            <mxPoint x="475" y="1817" as="sourcePoint" />
            <mxPoint x="600" y="1817" as="targetPoint" />
          </mxGeometry>
        </mxCell>
        <mxCell id="dV1bL2ieKj4Z74G61Acg-135" value="" style="endArrow=classic;html=1;rounded=0;entryX=-0.068;entryY=0.199;entryDx=0;entryDy=0;entryPerimeter=0;exitX=0.997;exitY=0.2;exitDx=0;exitDy=0;exitPerimeter=0;" parent="1" edge="1">
          <mxGeometry width="50" height="50" relative="1" as="geometry">
            <mxPoint x="610" y="1826.86" as="sourcePoint" />
            <mxPoint x="759" y="1826.86" as="targetPoint" />
          </mxGeometry>
        </mxCell>
        <mxCell id="dV1bL2ieKj4Z74G61Acg-136" value="" style="endArrow=classic;html=1;rounded=0;entryX=1.047;entryY=0.3;entryDx=0;entryDy=0;entryPerimeter=0;exitX=0;exitY=0.3;exitDx=0;exitDy=0;exitPerimeter=0;dashed=1;" parent="1" edge="1">
          <mxGeometry width="50" height="50" relative="1" as="geometry">
            <mxPoint x="760" y="1846.86" as="sourcePoint" />
            <mxPoint x="610" y="1846.86" as="targetPoint" />
          </mxGeometry>
        </mxCell>
        <mxCell id="dV1bL2ieKj4Z74G61Acg-137" value="" style="endArrow=classic;html=1;rounded=0;entryX=1.032;entryY=0.35;entryDx=0;entryDy=0;entryPerimeter=0;dashed=1;" parent="1" edge="1">
          <mxGeometry width="50" height="50" relative="1" as="geometry">
            <mxPoint x="600" y="1857" as="sourcePoint" />
            <mxPoint x="475" y="1857" as="targetPoint" />
          </mxGeometry>
        </mxCell>
        <mxCell id="dV1bL2ieKj4Z74G61Acg-138" value="View Music" style="text;html=1;align=center;verticalAlign=middle;resizable=0;points=[];autosize=1;strokeColor=none;fillColor=none;" parent="1" vertex="1">
          <mxGeometry x="310" y="1577" width="80" height="30" as="geometry" />
        </mxCell>
        <mxCell id="dV1bL2ieKj4Z74G61Acg-139" value="Music" style="text;html=1;align=center;verticalAlign=middle;resizable=0;points=[];autosize=1;strokeColor=none;fillColor=none;" parent="1" vertex="1">
          <mxGeometry x="325" y="1657" width="50" height="30" as="geometry" />
        </mxCell>
        <mxCell id="dV1bL2ieKj4Z74G61Acg-140" value="Music" style="text;html=1;align=center;verticalAlign=middle;resizable=0;points=[];autosize=1;strokeColor=none;fillColor=none;" parent="1" vertex="1">
          <mxGeometry x="325" y="1747" width="50" height="30" as="geometry" />
        </mxCell>
        <mxCell id="dV1bL2ieKj4Z74G61Acg-141" value="Music" style="text;html=1;align=center;verticalAlign=middle;resizable=0;points=[];autosize=1;strokeColor=none;fillColor=none;" parent="1" vertex="1">
          <mxGeometry x="325" y="1817" width="50" height="30" as="geometry" />
        </mxCell>
        <mxCell id="dV1bL2ieKj4Z74G61Acg-143" value="" style="endArrow=none;html=1;rounded=0;exitX=0.5;exitY=0;exitDx=0;exitDy=0;entryX=0.5;entryY=1;entryDx=0;entryDy=0;entryPerimeter=0;dashed=1;" parent="1" source="dV1bL2ieKj4Z74G61Acg-14" target="dV1bL2ieKj4Z74G61Acg-8" edge="1">
          <mxGeometry width="50" height="50" relative="1" as="geometry">
            <mxPoint x="480" y="200" as="sourcePoint" />
            <mxPoint x="530" y="150" as="targetPoint" />
          </mxGeometry>
        </mxCell>
        <mxCell id="dV1bL2ieKj4Z74G61Acg-144" value="" style="endArrow=none;html=1;rounded=0;entryX=0.494;entryY=1;entryDx=0;entryDy=0;entryPerimeter=0;dashed=1;" parent="1" target="dV1bL2ieKj4Z74G61Acg-14" edge="1" source="75vP7e7INXOybPQJv8t6-98">
          <mxGeometry width="50" height="50" relative="1" as="geometry">
            <mxPoint x="460" y="1680" as="sourcePoint" />
            <mxPoint x="470" y="1750" as="targetPoint" />
          </mxGeometry>
        </mxCell>
        <mxCell id="dV1bL2ieKj4Z74G61Acg-146" value="" style="rounded=0;whiteSpace=wrap;html=1;" parent="1" vertex="1">
          <mxGeometry x="590" y="500" width="10" height="290" as="geometry" />
        </mxCell>
        <mxCell id="dV1bL2ieKj4Z74G61Acg-147" value="" style="rounded=0;whiteSpace=wrap;html=1;" parent="1" vertex="1">
          <mxGeometry x="590" y="800" width="10" height="140" as="geometry" />
        </mxCell>
        <mxCell id="dV1bL2ieKj4Z74G61Acg-148" value="" style="rounded=0;whiteSpace=wrap;html=1;" parent="1" vertex="1">
          <mxGeometry x="590" y="960" width="10" height="300" as="geometry" />
        </mxCell>
        <mxCell id="dV1bL2ieKj4Z74G61Acg-149" value="" style="rounded=0;whiteSpace=wrap;html=1;" parent="1" vertex="1">
          <mxGeometry x="600" y="1577" width="10" height="310" as="geometry" />
        </mxCell>
        <mxCell id="dV1bL2ieKj4Z74G61Acg-151" value="" style="rounded=0;whiteSpace=wrap;html=1;" parent="1" vertex="1">
          <mxGeometry x="750" y="200" width="10" height="60" as="geometry" />
        </mxCell>
        <mxCell id="dV1bL2ieKj4Z74G61Acg-153" value="" style="rounded=0;whiteSpace=wrap;html=1;" parent="1" vertex="1">
          <mxGeometry x="750" y="280" width="10" height="60" as="geometry" />
        </mxCell>
        <mxCell id="dV1bL2ieKj4Z74G61Acg-154" value="" style="rounded=0;whiteSpace=wrap;html=1;" parent="1" vertex="1">
          <mxGeometry x="750" y="360" width="10" height="50" as="geometry" />
        </mxCell>
        <mxCell id="dV1bL2ieKj4Z74G61Acg-155" value="" style="rounded=0;whiteSpace=wrap;html=1;" parent="1" vertex="1">
          <mxGeometry x="750" y="430" width="10" height="60" as="geometry" />
        </mxCell>
        <mxCell id="dV1bL2ieKj4Z74G61Acg-156" value="" style="rounded=0;whiteSpace=wrap;html=1;" parent="1" vertex="1">
          <mxGeometry x="750" y="500" width="10" height="60" as="geometry" />
        </mxCell>
        <mxCell id="dV1bL2ieKj4Z74G61Acg-157" value="" style="rounded=0;whiteSpace=wrap;html=1;" parent="1" vertex="1">
          <mxGeometry x="750" y="575" width="10" height="60" as="geometry" />
        </mxCell>
        <mxCell id="dV1bL2ieKj4Z74G61Acg-158" value="" style="rounded=0;whiteSpace=wrap;html=1;" parent="1" vertex="1">
          <mxGeometry x="750" y="660" width="10" height="60" as="geometry" />
        </mxCell>
        <mxCell id="dV1bL2ieKj4Z74G61Acg-159" value="" style="rounded=0;whiteSpace=wrap;html=1;" parent="1" vertex="1">
          <mxGeometry x="750" y="730" width="10" height="60" as="geometry" />
        </mxCell>
        <mxCell id="dV1bL2ieKj4Z74G61Acg-160" value="" style="rounded=0;whiteSpace=wrap;html=1;" parent="1" vertex="1">
          <mxGeometry x="750" y="800" width="10" height="60" as="geometry" />
        </mxCell>
        <mxCell id="dV1bL2ieKj4Z74G61Acg-161" value="" style="rounded=0;whiteSpace=wrap;html=1;" parent="1" vertex="1">
          <mxGeometry x="750" y="968" width="10" height="60" as="geometry" />
        </mxCell>
        <mxCell id="dV1bL2ieKj4Z74G61Acg-162" value="" style="rounded=0;whiteSpace=wrap;html=1;" parent="1" vertex="1">
          <mxGeometry x="750" y="1040" width="10" height="68" as="geometry" />
        </mxCell>
        <mxCell id="dV1bL2ieKj4Z74G61Acg-163" value="" style="rounded=0;whiteSpace=wrap;html=1;" parent="1" vertex="1">
          <mxGeometry x="750" y="1128" width="10" height="60" as="geometry" />
        </mxCell>
        <mxCell id="dV1bL2ieKj4Z74G61Acg-164" value="" style="rounded=0;whiteSpace=wrap;html=1;" parent="1" vertex="1">
          <mxGeometry x="750" y="1198" width="10" height="60" as="geometry" />
        </mxCell>
        <mxCell id="dV1bL2ieKj4Z74G61Acg-165" value="" style="rounded=0;whiteSpace=wrap;html=1;" parent="1" vertex="1">
          <mxGeometry x="760" y="1577" width="10" height="60" as="geometry" />
        </mxCell>
        <mxCell id="dV1bL2ieKj4Z74G61Acg-166" value="" style="rounded=0;whiteSpace=wrap;html=1;" parent="1" vertex="1">
          <mxGeometry x="760" y="1657" width="10" height="60" as="geometry" />
        </mxCell>
        <mxCell id="dV1bL2ieKj4Z74G61Acg-167" value="" style="rounded=0;whiteSpace=wrap;html=1;" parent="1" vertex="1">
          <mxGeometry x="760" y="1737" width="10" height="60" as="geometry" />
        </mxCell>
        <mxCell id="dV1bL2ieKj4Z74G61Acg-168" value="" style="rounded=0;whiteSpace=wrap;html=1;" parent="1" vertex="1">
          <mxGeometry x="760" y="1807" width="10" height="60" as="geometry" />
        </mxCell>
        <mxCell id="dV1bL2ieKj4Z74G61Acg-169" value="" style="rounded=0;whiteSpace=wrap;html=1;" parent="1" vertex="1">
          <mxGeometry x="750" y="880" width="10" height="60" as="geometry" />
        </mxCell>
        <mxCell id="dV1bL2ieKj4Z74G61Acg-170" value="" style="endArrow=none;html=1;rounded=0;entryX=0.495;entryY=1.009;entryDx=0;entryDy=0;entryPerimeter=0;exitX=0.5;exitY=0;exitDx=0;exitDy=0;dashed=1;" parent="1" source="dV1bL2ieKj4Z74G61Acg-17" target="dV1bL2ieKj4Z74G61Acg-10" edge="1">
          <mxGeometry width="50" height="50" relative="1" as="geometry">
            <mxPoint x="510" y="220" as="sourcePoint" />
            <mxPoint x="560" y="170" as="targetPoint" />
          </mxGeometry>
        </mxCell>
        <mxCell id="dV1bL2ieKj4Z74G61Acg-171" value="" style="endArrow=none;dashed=1;html=1;rounded=0;entryX=0.5;entryY=1;entryDx=0;entryDy=0;exitX=0.5;exitY=0;exitDx=0;exitDy=0;" parent="1" source="dV1bL2ieKj4Z74G61Acg-146" target="dV1bL2ieKj4Z74G61Acg-17" edge="1">
          <mxGeometry width="50" height="50" relative="1" as="geometry">
            <mxPoint x="600" y="570" as="sourcePoint" />
            <mxPoint x="650" y="520" as="targetPoint" />
          </mxGeometry>
        </mxCell>
        <mxCell id="dV1bL2ieKj4Z74G61Acg-172" value="" style="endArrow=none;dashed=1;html=1;dashPattern=1 3;strokeWidth=2;rounded=0;entryX=0.5;entryY=1;entryDx=0;entryDy=0;exitX=0.5;exitY=0;exitDx=0;exitDy=0;" parent="1" source="75vP7e7INXOybPQJv8t6-100" target="dV1bL2ieKj4Z74G61Acg-148" edge="1">
          <mxGeometry width="50" height="50" relative="1" as="geometry">
            <mxPoint x="620" y="1320" as="sourcePoint" />
            <mxPoint x="670" y="1270" as="targetPoint" />
          </mxGeometry>
        </mxCell>
        <mxCell id="dV1bL2ieKj4Z74G61Acg-173" value="" style="endArrow=none;dashed=1;html=1;rounded=0;entryX=0.5;entryY=1;entryDx=0;entryDy=0;exitX=0.5;exitY=0;exitDx=0;exitDy=0;" parent="1" source="dV1bL2ieKj4Z74G61Acg-148" target="dV1bL2ieKj4Z74G61Acg-147" edge="1">
          <mxGeometry width="50" height="50" relative="1" as="geometry">
            <mxPoint x="600" y="1010" as="sourcePoint" />
            <mxPoint x="650" y="960" as="targetPoint" />
          </mxGeometry>
        </mxCell>
        <mxCell id="dV1bL2ieKj4Z74G61Acg-174" value="" style="endArrow=none;dashed=1;html=1;rounded=0;entryX=0.5;entryY=1;entryDx=0;entryDy=0;exitX=0.5;exitY=0;exitDx=0;exitDy=0;" parent="1" source="dV1bL2ieKj4Z74G61Acg-147" target="dV1bL2ieKj4Z74G61Acg-146" edge="1">
          <mxGeometry width="50" height="50" relative="1" as="geometry">
            <mxPoint x="610" y="800" as="sourcePoint" />
            <mxPoint x="610" y="780" as="targetPoint" />
          </mxGeometry>
        </mxCell>
        <mxCell id="dV1bL2ieKj4Z74G61Acg-176" value="" style="endArrow=none;dashed=1;html=1;rounded=0;exitX=0.5;exitY=0;exitDx=0;exitDy=0;entryX=0.495;entryY=1.011;entryDx=0;entryDy=0;entryPerimeter=0;" parent="1" source="dV1bL2ieKj4Z74G61Acg-151" target="dV1bL2ieKj4Z74G61Acg-12" edge="1">
          <mxGeometry width="50" height="50" relative="1" as="geometry">
            <mxPoint x="730" y="190" as="sourcePoint" />
            <mxPoint x="760" y="140" as="targetPoint" />
          </mxGeometry>
        </mxCell>
        <mxCell id="dV1bL2ieKj4Z74G61Acg-179" value="" style="endArrow=none;html=1;rounded=0;exitX=0.5;exitY=0;exitDx=0;exitDy=0;entryX=0.5;entryY=1;entryDx=0;entryDy=0;dashed=1;" parent="1" source="dV1bL2ieKj4Z74G61Acg-153" target="dV1bL2ieKj4Z74G61Acg-151" edge="1">
          <mxGeometry width="50" height="50" relative="1" as="geometry">
            <mxPoint x="750" y="310" as="sourcePoint" />
            <mxPoint x="800" y="260" as="targetPoint" />
          </mxGeometry>
        </mxCell>
        <mxCell id="dV1bL2ieKj4Z74G61Acg-180" value="" style="endArrow=none;html=1;rounded=0;exitX=0.5;exitY=0;exitDx=0;exitDy=0;entryX=0.5;entryY=1;entryDx=0;entryDy=0;dashed=1;" parent="1" source="dV1bL2ieKj4Z74G61Acg-154" target="dV1bL2ieKj4Z74G61Acg-153" edge="1">
          <mxGeometry width="50" height="50" relative="1" as="geometry">
            <mxPoint x="790" y="370" as="sourcePoint" />
            <mxPoint x="840" y="320" as="targetPoint" />
          </mxGeometry>
        </mxCell>
        <mxCell id="dV1bL2ieKj4Z74G61Acg-181" value="" style="endArrow=none;html=1;rounded=0;exitX=0.5;exitY=0;exitDx=0;exitDy=0;entryX=0.5;entryY=1;entryDx=0;entryDy=0;dashed=1;" parent="1" source="dV1bL2ieKj4Z74G61Acg-155" target="dV1bL2ieKj4Z74G61Acg-154" edge="1">
          <mxGeometry width="50" height="50" relative="1" as="geometry">
            <mxPoint x="790" y="440" as="sourcePoint" />
            <mxPoint x="840" y="390" as="targetPoint" />
          </mxGeometry>
        </mxCell>
        <mxCell id="dV1bL2ieKj4Z74G61Acg-182" value="" style="endArrow=none;html=1;rounded=0;exitX=0.5;exitY=0;exitDx=0;exitDy=0;entryX=0.5;entryY=1;entryDx=0;entryDy=0;dashed=1;" parent="1" source="dV1bL2ieKj4Z74G61Acg-156" target="dV1bL2ieKj4Z74G61Acg-155" edge="1">
          <mxGeometry width="50" height="50" relative="1" as="geometry">
            <mxPoint x="770" y="490" as="sourcePoint" />
            <mxPoint x="820" y="440" as="targetPoint" />
          </mxGeometry>
        </mxCell>
        <mxCell id="dV1bL2ieKj4Z74G61Acg-183" value="" style="endArrow=none;html=1;rounded=0;exitX=0.5;exitY=0;exitDx=0;exitDy=0;entryX=0.5;entryY=1;entryDx=0;entryDy=0;dashed=1;" parent="1" source="dV1bL2ieKj4Z74G61Acg-157" target="dV1bL2ieKj4Z74G61Acg-156" edge="1">
          <mxGeometry width="50" height="50" relative="1" as="geometry">
            <mxPoint x="780" y="570" as="sourcePoint" />
            <mxPoint x="830" y="520" as="targetPoint" />
          </mxGeometry>
        </mxCell>
        <mxCell id="dV1bL2ieKj4Z74G61Acg-184" value="" style="endArrow=none;html=1;rounded=0;exitX=0.5;exitY=0;exitDx=0;exitDy=0;entryX=0.5;entryY=1;entryDx=0;entryDy=0;dashed=1;" parent="1" source="dV1bL2ieKj4Z74G61Acg-158" target="dV1bL2ieKj4Z74G61Acg-157" edge="1">
          <mxGeometry width="50" height="50" relative="1" as="geometry">
            <mxPoint x="830" y="730" as="sourcePoint" />
            <mxPoint x="880" y="680" as="targetPoint" />
          </mxGeometry>
        </mxCell>
        <mxCell id="dV1bL2ieKj4Z74G61Acg-185" value="" style="endArrow=none;html=1;rounded=0;exitX=0.5;exitY=0;exitDx=0;exitDy=0;entryX=0.5;entryY=1;entryDx=0;entryDy=0;dashed=1;" parent="1" source="dV1bL2ieKj4Z74G61Acg-159" target="dV1bL2ieKj4Z74G61Acg-158" edge="1">
          <mxGeometry width="50" height="50" relative="1" as="geometry">
            <mxPoint x="770" y="720" as="sourcePoint" />
            <mxPoint x="770" y="695" as="targetPoint" />
          </mxGeometry>
        </mxCell>
        <mxCell id="dV1bL2ieKj4Z74G61Acg-186" value="" style="endArrow=none;html=1;rounded=0;exitX=0.5;exitY=0;exitDx=0;exitDy=0;entryX=0.5;entryY=1;entryDx=0;entryDy=0;dashed=1;" parent="1" source="dV1bL2ieKj4Z74G61Acg-160" target="dV1bL2ieKj4Z74G61Acg-159" edge="1">
          <mxGeometry width="50" height="50" relative="1" as="geometry">
            <mxPoint x="780" y="810" as="sourcePoint" />
            <mxPoint x="830" y="760" as="targetPoint" />
          </mxGeometry>
        </mxCell>
        <mxCell id="dV1bL2ieKj4Z74G61Acg-187" value="" style="endArrow=none;html=1;rounded=0;exitX=0.5;exitY=0;exitDx=0;exitDy=0;entryX=0.5;entryY=1;entryDx=0;entryDy=0;dashed=1;" parent="1" source="dV1bL2ieKj4Z74G61Acg-169" target="dV1bL2ieKj4Z74G61Acg-160" edge="1">
          <mxGeometry width="50" height="50" relative="1" as="geometry">
            <mxPoint x="780" y="880" as="sourcePoint" />
            <mxPoint x="830" y="830" as="targetPoint" />
          </mxGeometry>
        </mxCell>
        <mxCell id="dV1bL2ieKj4Z74G61Acg-188" value="" style="endArrow=none;html=1;rounded=0;exitX=0.5;exitY=0;exitDx=0;exitDy=0;entryX=0.5;entryY=1;entryDx=0;entryDy=0;dashed=1;" parent="1" source="dV1bL2ieKj4Z74G61Acg-161" target="dV1bL2ieKj4Z74G61Acg-169" edge="1">
          <mxGeometry width="50" height="50" relative="1" as="geometry">
            <mxPoint x="810" y="970" as="sourcePoint" />
            <mxPoint x="860" y="920" as="targetPoint" />
          </mxGeometry>
        </mxCell>
        <mxCell id="dV1bL2ieKj4Z74G61Acg-189" value="" style="endArrow=none;html=1;rounded=0;exitX=0.5;exitY=0;exitDx=0;exitDy=0;entryX=0.5;entryY=1;entryDx=0;entryDy=0;dashed=1;" parent="1" source="dV1bL2ieKj4Z74G61Acg-162" target="dV1bL2ieKj4Z74G61Acg-161" edge="1">
          <mxGeometry width="50" height="50" relative="1" as="geometry">
            <mxPoint x="800" y="1030" as="sourcePoint" />
            <mxPoint x="850" y="980" as="targetPoint" />
          </mxGeometry>
        </mxCell>
        <mxCell id="dV1bL2ieKj4Z74G61Acg-190" value="" style="endArrow=none;html=1;rounded=0;exitX=0.5;exitY=0;exitDx=0;exitDy=0;entryX=0.5;entryY=1;entryDx=0;entryDy=0;dashed=1;" parent="1" source="dV1bL2ieKj4Z74G61Acg-163" target="dV1bL2ieKj4Z74G61Acg-162" edge="1">
          <mxGeometry width="50" height="50" relative="1" as="geometry">
            <mxPoint x="780" y="1130" as="sourcePoint" />
            <mxPoint x="830" y="1080" as="targetPoint" />
          </mxGeometry>
        </mxCell>
        <mxCell id="dV1bL2ieKj4Z74G61Acg-191" value="" style="endArrow=none;html=1;rounded=0;exitX=0.5;exitY=0;exitDx=0;exitDy=0;entryX=0.5;entryY=1;entryDx=0;entryDy=0;dashed=1;" parent="1" source="dV1bL2ieKj4Z74G61Acg-164" target="dV1bL2ieKj4Z74G61Acg-163" edge="1">
          <mxGeometry width="50" height="50" relative="1" as="geometry">
            <mxPoint x="770" y="1220" as="sourcePoint" />
            <mxPoint x="820" y="1170" as="targetPoint" />
          </mxGeometry>
        </mxCell>
        <mxCell id="dV1bL2ieKj4Z74G61Acg-192" value="" style="endArrow=none;html=1;rounded=0;exitX=0.5;exitY=0;exitDx=0;exitDy=0;entryX=0.5;entryY=1;entryDx=0;entryDy=0;dashed=1;" parent="1" source="75vP7e7INXOybPQJv8t6-102" target="dV1bL2ieKj4Z74G61Acg-164" edge="1">
          <mxGeometry width="50" height="50" relative="1" as="geometry">
            <mxPoint x="770" y="1300" as="sourcePoint" />
            <mxPoint x="820" y="1250" as="targetPoint" />
          </mxGeometry>
        </mxCell>
        <mxCell id="dV1bL2ieKj4Z74G61Acg-193" value="" style="endArrow=none;html=1;rounded=0;entryX=0.5;entryY=1;entryDx=0;entryDy=0;exitX=0.5;exitY=0;exitDx=0;exitDy=0;dashed=1;" parent="1" source="dV1bL2ieKj4Z74G61Acg-166" target="dV1bL2ieKj4Z74G61Acg-165" edge="1">
          <mxGeometry width="50" height="50" relative="1" as="geometry">
            <mxPoint x="780" y="1677" as="sourcePoint" />
            <mxPoint x="830" y="1627" as="targetPoint" />
          </mxGeometry>
        </mxCell>
        <mxCell id="dV1bL2ieKj4Z74G61Acg-194" value="" style="endArrow=none;html=1;rounded=0;exitX=0.5;exitY=0;exitDx=0;exitDy=0;entryX=0.5;entryY=1;entryDx=0;entryDy=0;dashed=1;" parent="1" source="dV1bL2ieKj4Z74G61Acg-167" target="dV1bL2ieKj4Z74G61Acg-166" edge="1">
          <mxGeometry width="50" height="50" relative="1" as="geometry">
            <mxPoint x="810" y="1747" as="sourcePoint" />
            <mxPoint x="860" y="1697" as="targetPoint" />
          </mxGeometry>
        </mxCell>
        <mxCell id="dV1bL2ieKj4Z74G61Acg-195" value="" style="endArrow=none;html=1;rounded=0;exitX=0.5;exitY=0;exitDx=0;exitDy=0;entryX=0.5;entryY=1;entryDx=0;entryDy=0;dashed=1;" parent="1" source="dV1bL2ieKj4Z74G61Acg-168" target="dV1bL2ieKj4Z74G61Acg-167" edge="1">
          <mxGeometry width="50" height="50" relative="1" as="geometry">
            <mxPoint x="790" y="1807" as="sourcePoint" />
            <mxPoint x="840" y="1757" as="targetPoint" />
          </mxGeometry>
        </mxCell>
        <mxCell id="75vP7e7INXOybPQJv8t6-1" value="" style="rounded=0;whiteSpace=wrap;html=1;" vertex="1" parent="1">
          <mxGeometry x="160" y="160" width="10" height="1120" as="geometry" />
        </mxCell>
        <mxCell id="75vP7e7INXOybPQJv8t6-2" value="POST request" style="text;html=1;align=center;verticalAlign=middle;resizable=0;points=[];autosize=1;strokeColor=none;fillColor=none;fontSize=9;" vertex="1" parent="1">
          <mxGeometry x="490" y="190" width="80" height="20" as="geometry" />
        </mxCell>
        <mxCell id="75vP7e7INXOybPQJv8t6-3" value="Login credntials" style="text;html=1;align=center;verticalAlign=middle;resizable=0;points=[];autosize=1;strokeColor=none;fillColor=none;fontSize=9;" vertex="1" parent="1">
          <mxGeometry x="640" y="201" width="90" height="20" as="geometry" />
        </mxCell>
        <mxCell id="75vP7e7INXOybPQJv8t6-4" value="Credentials Verified" style="text;html=1;align=center;verticalAlign=middle;resizable=0;points=[];autosize=1;strokeColor=none;fillColor=none;fontSize=9;" vertex="1" parent="1">
          <mxGeometry x="630" y="240" width="100" height="20" as="geometry" />
        </mxCell>
        <mxCell id="75vP7e7INXOybPQJv8t6-5" value="User Logged in" style="text;html=1;align=center;verticalAlign=middle;resizable=0;points=[];autosize=1;strokeColor=none;fillColor=none;fontSize=9;" vertex="1" parent="1">
          <mxGeometry x="490" y="248" width="80" height="20" as="geometry" />
        </mxCell>
        <mxCell id="75vP7e7INXOybPQJv8t6-6" value="&lt;font style=&quot;font-size: 9px;&quot;&gt;GET request&lt;/font&gt;" style="text;html=1;align=center;verticalAlign=middle;resizable=0;points=[];autosize=1;strokeColor=none;fillColor=none;" vertex="1" parent="1">
          <mxGeometry x="495" y="268" width="70" height="30" as="geometry" />
        </mxCell>
        <mxCell id="75vP7e7INXOybPQJv8t6-7" value="User credntials" style="text;html=1;align=center;verticalAlign=middle;resizable=0;points=[];autosize=1;strokeColor=none;fillColor=none;fontSize=9;" vertex="1" parent="1">
          <mxGeometry x="640" y="278" width="80" height="20" as="geometry" />
        </mxCell>
        <mxCell id="75vP7e7INXOybPQJv8t6-8" value="User profile details" style="text;html=1;align=center;verticalAlign=middle;resizable=0;points=[];autosize=1;strokeColor=none;fillColor=none;fontSize=9;" vertex="1" parent="1">
          <mxGeometry x="630" y="320" width="100" height="20" as="geometry" />
        </mxCell>
        <mxCell id="75vP7e7INXOybPQJv8t6-9" value="User Profile" style="text;html=1;align=center;verticalAlign=middle;resizable=0;points=[];autosize=1;strokeColor=none;fillColor=none;fontSize=9;" vertex="1" parent="1">
          <mxGeometry x="495" y="330" width="70" height="20" as="geometry" />
        </mxCell>
        <mxCell id="75vP7e7INXOybPQJv8t6-10" value="&lt;font style=&quot;font-size: 9px;&quot;&gt;PATCH request&lt;/font&gt;" style="text;html=1;align=center;verticalAlign=middle;resizable=0;points=[];autosize=1;strokeColor=none;fillColor=none;" vertex="1" parent="1">
          <mxGeometry x="485" y="348" width="90" height="30" as="geometry" />
        </mxCell>
        <mxCell id="75vP7e7INXOybPQJv8t6-11" value="Updated User credntials" style="text;html=1;align=center;verticalAlign=middle;resizable=0;points=[];autosize=1;strokeColor=none;fillColor=none;fontSize=9;" vertex="1" parent="1">
          <mxGeometry x="625" y="360" width="120" height="20" as="geometry" />
        </mxCell>
        <mxCell id="75vP7e7INXOybPQJv8t6-12" value="User profile updated" style="text;html=1;align=center;verticalAlign=middle;resizable=0;points=[];autosize=1;strokeColor=none;fillColor=none;fontSize=9;" vertex="1" parent="1">
          <mxGeometry x="630" y="390" width="100" height="20" as="geometry" />
        </mxCell>
        <mxCell id="75vP7e7INXOybPQJv8t6-13" value="User crednentials updated" style="text;html=1;align=center;verticalAlign=middle;resizable=0;points=[];autosize=1;strokeColor=none;fillColor=none;fontSize=9;" vertex="1" parent="1">
          <mxGeometry x="465" y="400" width="130" height="20" as="geometry" />
        </mxCell>
        <mxCell id="75vP7e7INXOybPQJv8t6-14" value="DELETE request" style="text;html=1;align=center;verticalAlign=middle;resizable=0;points=[];autosize=1;strokeColor=none;fillColor=none;fontSize=9;" vertex="1" parent="1">
          <mxGeometry x="485" y="433" width="90" height="20" as="geometry" />
        </mxCell>
        <mxCell id="75vP7e7INXOybPQJv8t6-15" value="deletes user profile" style="text;html=1;align=center;verticalAlign=middle;resizable=0;points=[];autosize=1;strokeColor=none;fillColor=none;fontSize=9;" vertex="1" parent="1">
          <mxGeometry x="630" y="433" width="100" height="20" as="geometry" />
        </mxCell>
        <mxCell id="75vP7e7INXOybPQJv8t6-16" value="user proile deleted" style="text;html=1;align=center;verticalAlign=middle;resizable=0;points=[];autosize=1;strokeColor=none;fillColor=none;fontSize=9;" vertex="1" parent="1">
          <mxGeometry x="630" y="458" width="100" height="20" as="geometry" />
        </mxCell>
        <mxCell id="75vP7e7INXOybPQJv8t6-17" value="user removed" style="text;html=1;align=center;verticalAlign=middle;resizable=0;points=[];autosize=1;strokeColor=none;fillColor=none;fontSize=9;" vertex="1" parent="1">
          <mxGeometry x="490" y="465" width="80" height="20" as="geometry" />
        </mxCell>
        <mxCell id="75vP7e7INXOybPQJv8t6-18" value="POST request" style="text;html=1;align=center;verticalAlign=middle;resizable=0;points=[];autosize=1;strokeColor=none;fillColor=none;fontSize=9;" vertex="1" parent="1">
          <mxGeometry x="485" y="500" width="80" height="20" as="geometry" />
        </mxCell>
        <mxCell id="75vP7e7INXOybPQJv8t6-19" value="Playlist details" style="text;html=1;align=center;verticalAlign=middle;resizable=0;points=[];autosize=1;strokeColor=none;fillColor=none;fontSize=9;" vertex="1" parent="1">
          <mxGeometry x="640" y="511" width="80" height="20" as="geometry" />
        </mxCell>
        <mxCell id="75vP7e7INXOybPQJv8t6-20" value="Playlist created" style="text;html=1;align=center;verticalAlign=middle;resizable=0;points=[];autosize=1;strokeColor=none;fillColor=none;fontSize=9;" vertex="1" parent="1">
          <mxGeometry x="640" y="540" width="80" height="20" as="geometry" />
        </mxCell>
        <mxCell id="75vP7e7INXOybPQJv8t6-21" value="Playlist created" style="text;html=1;align=center;verticalAlign=middle;resizable=0;points=[];autosize=1;strokeColor=none;fillColor=none;fontSize=9;" vertex="1" parent="1">
          <mxGeometry x="485" y="550" width="80" height="20" as="geometry" />
        </mxCell>
        <mxCell id="75vP7e7INXOybPQJv8t6-22" value="&lt;font style=&quot;font-size: 9px;&quot;&gt;GET request&lt;/font&gt;" style="text;html=1;align=center;verticalAlign=middle;resizable=0;points=[];autosize=1;strokeColor=none;fillColor=none;" vertex="1" parent="1">
          <mxGeometry x="495" y="578" width="70" height="30" as="geometry" />
        </mxCell>
        <mxCell id="75vP7e7INXOybPQJv8t6-23" value="Playlist ID" style="text;html=1;align=center;verticalAlign=middle;resizable=0;points=[];autosize=1;strokeColor=none;fillColor=none;fontSize=9;" vertex="1" parent="1">
          <mxGeometry x="650" y="588" width="60" height="20" as="geometry" />
        </mxCell>
        <mxCell id="75vP7e7INXOybPQJv8t6-24" value="Playlist details" style="text;html=1;align=center;verticalAlign=middle;resizable=0;points=[];autosize=1;strokeColor=none;fillColor=none;fontSize=9;" vertex="1" parent="1">
          <mxGeometry x="640" y="630" width="80" height="20" as="geometry" />
        </mxCell>
        <mxCell id="75vP7e7INXOybPQJv8t6-25" value="Playlist displayed" style="text;html=1;align=center;verticalAlign=middle;resizable=0;points=[];autosize=1;strokeColor=none;fillColor=none;fontSize=9;" vertex="1" parent="1">
          <mxGeometry x="485" y="630" width="90" height="20" as="geometry" />
        </mxCell>
        <mxCell id="75vP7e7INXOybPQJv8t6-26" value="PATCH Request" style="text;html=1;align=center;verticalAlign=middle;resizable=0;points=[];autosize=1;strokeColor=none;fillColor=none;fontSize=9;" vertex="1" parent="1">
          <mxGeometry x="485" y="665" width="90" height="20" as="geometry" />
        </mxCell>
        <mxCell id="75vP7e7INXOybPQJv8t6-28" value="Update playlist details" style="text;html=1;align=center;verticalAlign=middle;resizable=0;points=[];autosize=1;strokeColor=none;fillColor=none;fontSize=9;" vertex="1" parent="1">
          <mxGeometry x="625" y="670" width="110" height="20" as="geometry" />
        </mxCell>
        <mxCell id="75vP7e7INXOybPQJv8t6-29" value="playlist details updated" style="text;html=1;align=center;verticalAlign=middle;resizable=0;points=[];autosize=1;strokeColor=none;fillColor=none;fontSize=9;" vertex="1" parent="1">
          <mxGeometry x="625" y="700" width="110" height="20" as="geometry" />
        </mxCell>
        <mxCell id="75vP7e7INXOybPQJv8t6-30" value="playlist updated" style="text;html=1;align=center;verticalAlign=middle;resizable=0;points=[];autosize=1;strokeColor=none;fillColor=none;fontSize=9;" vertex="1" parent="1">
          <mxGeometry x="480" y="710" width="90" height="20" as="geometry" />
        </mxCell>
        <mxCell id="75vP7e7INXOybPQJv8t6-31" value="" style="endArrow=classic;html=1;rounded=0;entryX=-0.054;entryY=0.878;entryDx=0;entryDy=0;entryPerimeter=0;exitX=0.997;exitY=0.2;exitDx=0;exitDy=0;exitPerimeter=0;" edge="1" parent="1" target="dV1bL2ieKj4Z74G61Acg-146">
          <mxGeometry width="50" height="50" relative="1" as="geometry">
            <mxPoint x="465" y="754.66" as="sourcePoint" />
            <mxPoint x="614" y="754.66" as="targetPoint" />
          </mxGeometry>
        </mxCell>
        <mxCell id="75vP7e7INXOybPQJv8t6-32" value="DELETE Request" style="text;html=1;align=center;verticalAlign=middle;resizable=0;points=[];autosize=1;strokeColor=none;fillColor=none;fontSize=9;" vertex="1" parent="1">
          <mxGeometry x="480" y="740" width="90" height="20" as="geometry" />
        </mxCell>
        <mxCell id="75vP7e7INXOybPQJv8t6-33" value="Playlist deleted" style="text;html=1;align=center;verticalAlign=middle;resizable=0;points=[];autosize=1;strokeColor=none;fillColor=none;fontSize=9;" vertex="1" parent="1">
          <mxGeometry x="490" y="770" width="80" height="20" as="geometry" />
        </mxCell>
        <mxCell id="75vP7e7INXOybPQJv8t6-34" value="Playlist ID" style="text;html=1;align=center;verticalAlign=middle;resizable=0;points=[];autosize=1;strokeColor=none;fillColor=none;fontSize=9;" vertex="1" parent="1">
          <mxGeometry x="650" y="735" width="60" height="20" as="geometry" />
        </mxCell>
        <mxCell id="75vP7e7INXOybPQJv8t6-35" value="Palylist deleted" style="text;html=1;align=center;verticalAlign=middle;resizable=0;points=[];autosize=1;strokeColor=none;fillColor=none;fontSize=9;" vertex="1" parent="1">
          <mxGeometry x="640" y="765" width="80" height="20" as="geometry" />
        </mxCell>
        <mxCell id="75vP7e7INXOybPQJv8t6-37" value="POST Request" style="text;html=1;align=center;verticalAlign=middle;resizable=0;points=[];autosize=1;strokeColor=none;fillColor=none;fontSize=9;" vertex="1" parent="1">
          <mxGeometry x="490" y="803" width="80" height="20" as="geometry" />
        </mxCell>
        <mxCell id="75vP7e7INXOybPQJv8t6-38" value="music id" style="text;html=1;align=center;verticalAlign=middle;resizable=0;points=[];autosize=1;strokeColor=none;fillColor=none;fontSize=9;" vertex="1" parent="1">
          <mxGeometry x="650" y="810" width="60" height="20" as="geometry" />
        </mxCell>
        <mxCell id="75vP7e7INXOybPQJv8t6-39" value="music liked" style="text;html=1;align=center;verticalAlign=middle;resizable=0;points=[];autosize=1;strokeColor=none;fillColor=none;fontSize=9;" vertex="1" parent="1">
          <mxGeometry x="645" y="840" width="70" height="20" as="geometry" />
        </mxCell>
        <mxCell id="75vP7e7INXOybPQJv8t6-40" value="Music Liked" style="text;html=1;align=center;verticalAlign=middle;resizable=0;points=[];autosize=1;strokeColor=none;fillColor=none;fontSize=9;" vertex="1" parent="1">
          <mxGeometry x="495" y="853" width="70" height="20" as="geometry" />
        </mxCell>
        <mxCell id="75vP7e7INXOybPQJv8t6-42" value="POST Request" style="text;html=1;align=center;verticalAlign=middle;resizable=0;points=[];autosize=1;strokeColor=none;fillColor=none;fontSize=9;" vertex="1" parent="1">
          <mxGeometry x="490" y="873" width="80" height="20" as="geometry" />
        </mxCell>
        <mxCell id="75vP7e7INXOybPQJv8t6-44" value="Music unliked" style="text;html=1;align=center;verticalAlign=middle;resizable=0;points=[];autosize=1;strokeColor=none;fillColor=none;fontSize=9;" vertex="1" parent="1">
          <mxGeometry x="490" y="920" width="80" height="20" as="geometry" />
        </mxCell>
        <mxCell id="75vP7e7INXOybPQJv8t6-45" value="Music unliked" style="text;html=1;align=center;verticalAlign=middle;resizable=0;points=[];autosize=1;strokeColor=none;fillColor=none;fontSize=9;" vertex="1" parent="1">
          <mxGeometry x="645" y="910" width="80" height="20" as="geometry" />
        </mxCell>
        <mxCell id="75vP7e7INXOybPQJv8t6-46" value="music id" style="text;html=1;align=center;verticalAlign=middle;resizable=0;points=[];autosize=1;strokeColor=none;fillColor=none;" vertex="1" parent="1">
          <mxGeometry x="645" y="878" width="70" height="30" as="geometry" />
        </mxCell>
        <mxCell id="75vP7e7INXOybPQJv8t6-47" value="POST Request" style="text;html=1;align=center;verticalAlign=middle;resizable=0;points=[];autosize=1;strokeColor=none;fillColor=none;fontSize=9;" vertex="1" parent="1">
          <mxGeometry x="490" y="968" width="80" height="20" as="geometry" />
        </mxCell>
        <mxCell id="75vP7e7INXOybPQJv8t6-48" value="Comment posted" style="text;html=1;align=center;verticalAlign=middle;resizable=0;points=[];autosize=1;strokeColor=none;fillColor=none;fontSize=9;" vertex="1" parent="1">
          <mxGeometry x="480" y="1008" width="90" height="20" as="geometry" />
        </mxCell>
        <mxCell id="75vP7e7INXOybPQJv8t6-49" value="comment details" style="text;html=1;align=center;verticalAlign=middle;resizable=0;points=[];autosize=1;strokeColor=none;fillColor=none;fontSize=9;" vertex="1" parent="1">
          <mxGeometry x="640" y="973" width="90" height="20" as="geometry" />
        </mxCell>
        <mxCell id="75vP7e7INXOybPQJv8t6-50" value="Comment posted" style="text;html=1;align=center;verticalAlign=middle;resizable=0;points=[];autosize=1;strokeColor=none;fillColor=none;fontSize=9;" vertex="1" parent="1">
          <mxGeometry x="635" y="998" width="90" height="20" as="geometry" />
        </mxCell>
        <mxCell id="75vP7e7INXOybPQJv8t6-51" value="PATCH Request" style="text;html=1;align=center;verticalAlign=middle;resizable=0;points=[];autosize=1;strokeColor=none;fillColor=none;fontSize=9;" vertex="1" parent="1">
          <mxGeometry x="485" y="1113" width="90" height="20" as="geometry" />
        </mxCell>
        <mxCell id="75vP7e7INXOybPQJv8t6-52" value="Comment Edited" style="text;html=1;align=center;verticalAlign=middle;resizable=0;points=[];autosize=1;strokeColor=none;fillColor=none;fontSize=9;" vertex="1" parent="1">
          <mxGeometry x="485" y="1168" width="90" height="20" as="geometry" />
        </mxCell>
        <mxCell id="75vP7e7INXOybPQJv8t6-53" value="Comment details" style="text;html=1;align=center;verticalAlign=middle;resizable=0;points=[];autosize=1;strokeColor=none;fillColor=none;fontSize=9;" vertex="1" parent="1">
          <mxGeometry x="635" y="1125" width="90" height="20" as="geometry" />
        </mxCell>
        <mxCell id="75vP7e7INXOybPQJv8t6-54" value="Comment Edited" style="text;html=1;align=center;verticalAlign=middle;resizable=0;points=[];autosize=1;strokeColor=none;fillColor=none;fontSize=9;" vertex="1" parent="1">
          <mxGeometry x="640" y="1160" width="90" height="20" as="geometry" />
        </mxCell>
        <mxCell id="75vP7e7INXOybPQJv8t6-56" value="GET Request" style="text;html=1;align=center;verticalAlign=middle;resizable=0;points=[];autosize=1;strokeColor=none;fillColor=none;fontSize=9;" vertex="1" parent="1">
          <mxGeometry x="490" y="1033" width="80" height="20" as="geometry" />
        </mxCell>
        <mxCell id="75vP7e7INXOybPQJv8t6-57" value="music details" style="text;html=1;align=center;verticalAlign=middle;resizable=0;points=[];autosize=1;strokeColor=none;fillColor=none;fontSize=9;" vertex="1" parent="1">
          <mxGeometry x="645" y="1045" width="80" height="20" as="geometry" />
        </mxCell>
        <mxCell id="75vP7e7INXOybPQJv8t6-58" value="comments displayed" style="text;html=1;align=center;verticalAlign=middle;resizable=0;points=[];autosize=1;strokeColor=none;fillColor=none;fontSize=9;" vertex="1" parent="1">
          <mxGeometry x="480" y="1088" width="110" height="20" as="geometry" />
        </mxCell>
        <mxCell id="75vP7e7INXOybPQJv8t6-59" value="comments details" style="text;html=1;align=center;verticalAlign=middle;resizable=0;points=[];autosize=1;strokeColor=none;fillColor=none;fontSize=9;" vertex="1" parent="1">
          <mxGeometry x="640" y="1080" width="90" height="20" as="geometry" />
        </mxCell>
        <mxCell id="75vP7e7INXOybPQJv8t6-60" value="DELETE Request" style="text;html=1;align=center;verticalAlign=middle;resizable=0;points=[];autosize=1;strokeColor=none;fillColor=none;fontSize=9;" vertex="1" parent="1">
          <mxGeometry x="485" y="1198" width="90" height="20" as="geometry" />
        </mxCell>
        <mxCell id="75vP7e7INXOybPQJv8t6-62" value="Comment id" style="text;html=1;align=center;verticalAlign=middle;resizable=0;points=[];autosize=1;strokeColor=none;fillColor=none;fontSize=9;" vertex="1" parent="1">
          <mxGeometry x="645" y="1200" width="70" height="20" as="geometry" />
        </mxCell>
        <mxCell id="75vP7e7INXOybPQJv8t6-63" value="Comment deleted" style="text;html=1;align=center;verticalAlign=middle;resizable=0;points=[];autosize=1;strokeColor=none;fillColor=none;fontSize=9;" vertex="1" parent="1">
          <mxGeometry x="640" y="1230" width="90" height="20" as="geometry" />
        </mxCell>
        <mxCell id="75vP7e7INXOybPQJv8t6-64" value="Comment deleted" style="text;html=1;align=center;verticalAlign=middle;resizable=0;points=[];autosize=1;strokeColor=none;fillColor=none;fontSize=9;" vertex="1" parent="1">
          <mxGeometry x="485" y="1238" width="90" height="20" as="geometry" />
        </mxCell>
        <mxCell id="75vP7e7INXOybPQJv8t6-66" value="GET Request" style="text;html=1;align=center;verticalAlign=middle;resizable=0;points=[];autosize=1;strokeColor=none;fillColor=none;fontSize=9;" vertex="1" parent="1">
          <mxGeometry x="490" y="1570" width="80" height="20" as="geometry" />
        </mxCell>
        <mxCell id="75vP7e7INXOybPQJv8t6-67" value="user id" style="text;html=1;align=center;verticalAlign=middle;resizable=0;points=[];autosize=1;strokeColor=none;fillColor=none;fontSize=9;" vertex="1" parent="1">
          <mxGeometry x="665" y="1582" width="50" height="20" as="geometry" />
        </mxCell>
        <mxCell id="75vP7e7INXOybPQJv8t6-68" value="Music details" style="text;html=1;align=center;verticalAlign=middle;resizable=0;points=[];autosize=1;strokeColor=none;fillColor=none;fontSize=9;" vertex="1" parent="1">
          <mxGeometry x="655" y="1617" width="80" height="20" as="geometry" />
        </mxCell>
        <mxCell id="75vP7e7INXOybPQJv8t6-69" value="Music details" style="text;html=1;align=center;verticalAlign=middle;resizable=0;points=[];autosize=1;strokeColor=none;fillColor=none;fontSize=9;" vertex="1" parent="1">
          <mxGeometry x="495" y="1630" width="80" height="20" as="geometry" />
        </mxCell>
        <mxCell id="75vP7e7INXOybPQJv8t6-74" value="" style="endArrow=none;html=1;rounded=0;dashed=1;" edge="1" parent="1">
          <mxGeometry width="50" height="50" relative="1" as="geometry">
            <mxPoint x="240" y="1281.2903225806451" as="sourcePoint" />
            <mxPoint x="240" y="160" as="targetPoint" />
          </mxGeometry>
        </mxCell>
        <mxCell id="75vP7e7INXOybPQJv8t6-75" value="" style="endArrow=none;html=1;rounded=0;dashed=1;" edge="1" parent="1">
          <mxGeometry width="50" height="50" relative="1" as="geometry">
            <mxPoint x="320" y="1280" as="sourcePoint" />
            <mxPoint x="320" y="160" as="targetPoint" />
          </mxGeometry>
        </mxCell>
        <mxCell id="75vP7e7INXOybPQJv8t6-77" value="User" style="shape=umlActor;verticalLabelPosition=bottom;verticalAlign=top;html=1;outlineConnect=0;" vertex="1" parent="1">
          <mxGeometry x="160" y="1370" width="30" height="60" as="geometry" />
        </mxCell>
        <mxCell id="75vP7e7INXOybPQJv8t6-78" value="Artist" style="shape=umlActor;verticalLabelPosition=bottom;verticalAlign=top;html=1;outlineConnect=0;" vertex="1" parent="1">
          <mxGeometry x="240" y="1370" width="30" height="60" as="geometry" />
        </mxCell>
        <mxCell id="75vP7e7INXOybPQJv8t6-79" value="Admin" style="shape=umlActor;verticalLabelPosition=bottom;verticalAlign=top;html=1;outlineConnect=0;" vertex="1" parent="1">
          <mxGeometry x="320" y="1370" width="30" height="60" as="geometry" />
        </mxCell>
        <mxCell id="75vP7e7INXOybPQJv8t6-80" value="" style="rounded=1;whiteSpace=wrap;html=1;" vertex="1" parent="1">
          <mxGeometry x="410" y="1385" width="120" height="30" as="geometry" />
        </mxCell>
        <mxCell id="75vP7e7INXOybPQJv8t6-81" value="Frontend(Client)" style="text;html=1;align=center;verticalAlign=middle;resizable=0;points=[];autosize=1;strokeColor=none;fillColor=none;" vertex="1" parent="1">
          <mxGeometry x="415" y="1385" width="110" height="30" as="geometry" />
        </mxCell>
        <mxCell id="75vP7e7INXOybPQJv8t6-82" value="" style="rounded=1;whiteSpace=wrap;html=1;" vertex="1" parent="1">
          <mxGeometry x="545" y="1385" width="120" height="30" as="geometry" />
        </mxCell>
        <mxCell id="75vP7e7INXOybPQJv8t6-83" value="Backend(Client)" style="text;html=1;align=center;verticalAlign=middle;resizable=0;points=[];autosize=1;strokeColor=none;fillColor=none;" vertex="1" parent="1">
          <mxGeometry x="550" y="1385" width="110" height="30" as="geometry" />
        </mxCell>
        <mxCell id="75vP7e7INXOybPQJv8t6-84" value="" style="rounded=1;whiteSpace=wrap;html=1;" vertex="1" parent="1">
          <mxGeometry x="705" y="1385" width="120" height="30" as="geometry" />
        </mxCell>
        <mxCell id="75vP7e7INXOybPQJv8t6-85" value="MongoDB Database" style="text;html=1;align=center;verticalAlign=middle;resizable=0;points=[];autosize=1;strokeColor=none;fillColor=none;" vertex="1" parent="1">
          <mxGeometry x="700" y="1385" width="130" height="30" as="geometry" />
        </mxCell>
        <mxCell id="75vP7e7INXOybPQJv8t6-86" value="" style="rounded=0;whiteSpace=wrap;html=1;" vertex="1" parent="1">
          <mxGeometry x="170" y="1460" width="10" height="620" as="geometry" />
        </mxCell>
        <mxCell id="75vP7e7INXOybPQJv8t6-90" value="" style="endArrow=none;html=1;rounded=0;entryX=0.494;entryY=1;entryDx=0;entryDy=0;entryPerimeter=0;dashed=1;" edge="1" parent="1" target="75vP7e7INXOybPQJv8t6-89">
          <mxGeometry width="50" height="50" relative="1" as="geometry">
            <mxPoint x="460" y="1680" as="sourcePoint" />
            <mxPoint x="460" y="1280" as="targetPoint" />
          </mxGeometry>
        </mxCell>
        <mxCell id="75vP7e7INXOybPQJv8t6-89" value="" style="rounded=0;whiteSpace=wrap;html=1;" vertex="1" parent="1">
          <mxGeometry x="455" y="1370" width="10" height="1120" as="geometry" />
        </mxCell>
        <mxCell id="75vP7e7INXOybPQJv8t6-93" value="" style="shape=mxgraph.sysml.x;" vertex="1" parent="1">
          <mxGeometry x="150" y="1310" width="20" height="20" as="geometry" />
        </mxCell>
        <mxCell id="75vP7e7INXOybPQJv8t6-94" value="" style="shape=mxgraph.sysml.x;" vertex="1" parent="1">
          <mxGeometry x="230" y="1310" width="20" height="20" as="geometry" />
        </mxCell>
        <mxCell id="75vP7e7INXOybPQJv8t6-97" value="" style="shape=mxgraph.sysml.x;" vertex="1" parent="1">
          <mxGeometry x="310" y="1310" width="20" height="20" as="geometry" />
        </mxCell>
        <mxCell id="75vP7e7INXOybPQJv8t6-99" value="" style="endArrow=none;html=1;rounded=0;entryX=0.494;entryY=1;entryDx=0;entryDy=0;entryPerimeter=0;dashed=1;" edge="1" parent="1" source="75vP7e7INXOybPQJv8t6-89" target="75vP7e7INXOybPQJv8t6-98">
          <mxGeometry width="50" height="50" relative="1" as="geometry">
            <mxPoint x="460" y="1370" as="sourcePoint" />
            <mxPoint x="460" y="1280" as="targetPoint" />
          </mxGeometry>
        </mxCell>
        <mxCell id="75vP7e7INXOybPQJv8t6-98" value="" style="shape=mxgraph.sysml.x;" vertex="1" parent="1">
          <mxGeometry x="450" y="1310" width="20" height="20" as="geometry" />
        </mxCell>
        <mxCell id="75vP7e7INXOybPQJv8t6-101" value="" style="endArrow=none;dashed=1;html=1;dashPattern=1 3;strokeWidth=2;rounded=0;entryX=0.5;entryY=1;entryDx=0;entryDy=0;exitX=0.5;exitY=0;exitDx=0;exitDy=0;" edge="1" parent="1" source="dV1bL2ieKj4Z74G61Acg-149" target="75vP7e7INXOybPQJv8t6-100">
          <mxGeometry width="50" height="50" relative="1" as="geometry">
            <mxPoint x="605" y="1577" as="sourcePoint" />
            <mxPoint x="595" y="1260" as="targetPoint" />
          </mxGeometry>
        </mxCell>
        <mxCell id="75vP7e7INXOybPQJv8t6-100" value="" style="shape=mxgraph.sysml.x;" vertex="1" parent="1">
          <mxGeometry x="585" y="1310" width="20" height="20" as="geometry" />
        </mxCell>
        <mxCell id="75vP7e7INXOybPQJv8t6-103" value="" style="endArrow=none;html=1;rounded=0;exitX=0.5;exitY=0;exitDx=0;exitDy=0;entryX=0.5;entryY=1;entryDx=0;entryDy=0;dashed=1;" edge="1" parent="1" source="dV1bL2ieKj4Z74G61Acg-165" target="75vP7e7INXOybPQJv8t6-102">
          <mxGeometry width="50" height="50" relative="1" as="geometry">
            <mxPoint x="765" y="1577" as="sourcePoint" />
            <mxPoint x="755" y="1258" as="targetPoint" />
          </mxGeometry>
        </mxCell>
        <mxCell id="75vP7e7INXOybPQJv8t6-102" value="" style="shape=mxgraph.sysml.x;" vertex="1" parent="1">
          <mxGeometry x="745" y="1310" width="20" height="20" as="geometry" />
        </mxCell>
      </root>
    </mxGraphModel>
  </diagram>
</mxfile>
